<svg id="_460_easter_basket_flatline" data-name="#460_easter_basket_flatline" xmlns="http://www.w3.org/2000/svg" viewBox="0 0 400 300" width="406" height="306" class="illustration styles_illustrationTablet__1DWOa"><ellipse cx="200" cy="252.67" rx="70.35" ry="13.37" fill="#e6e7e8"></ellipse><path d="M258.85,125.75c.15-1-.46-13.38,2.16-15.23s1.5,7.61,1.5,7.61,3-9.92,5.68-8.36-1.06,8.38-1.06,8.38,7.49-10.07,7.49-5.55-7.53,16.07-11.29,15.22S258.85,125.75,258.85,125.75Z" fill="#231f20"></path><path d="M241.69,170.3s8.57-41.82,13.47-45.81,15.21-5.37,14.14,3.76-25.71,58.72-30,52.66S241.69,170.3,241.69,170.3Z" fill="#fff"></path><path d="M240.24,181.92a1.59,1.59,0,0,1-1.34-.72,7.18,7.18,0,0,1-1.42-5.55,9.8,9.8,0,0,1,3.76-5.64c.71-3.45,8.74-41.95,13.6-45.91,3.22-2.63,8.84-4.29,12.3-2.39,1.47.81,3.12,2.61,2.65,6.6-1.06,9-22.22,51.81-29.06,53.55A2.12,2.12,0,0,1,240.24,181.92Zm23.34-60a13.79,13.79,0,0,0-8.11,3C251.71,128,245.13,156,242.18,170.4a.51.51,0,0,1-.21.31s-3,2.08-3.51,5.12a6.28,6.28,0,0,0,1.26,4.8.63.63,0,0,0,.77.26c6.26-1.59,27.38-44.82,28.31-52.69.32-2.76-.4-4.65-2.14-5.61A6.41,6.41,0,0,0,263.58,121.9Zm-21.89,48.4h0Z" fill="#231f20"></path><path d="M270.26,202.5H129.74a3.55,3.55,0,0,1-3.1-1.81c-1.8-3.23-43.83-79.59-15.27-127.51C125.81,49,155.63,36.68,200,36.68S274.19,49,288.62,73.18c28.57,47.92-13.46,124.28-15.26,127.51A3.54,3.54,0,0,1,270.26,202.5Zm0-3.5h0Zm-138.39-3.5H268.13A240.46,240.46,0,0,0,285,153.41c6.45-22.27,11.26-53.64-2.48-76.68C269.45,54.8,241.68,43.68,200,43.68S130.55,54.8,117.47,76.73c-13.74,23-8.93,54.41-2.48,76.68A240.46,240.46,0,0,0,131.87,195.5Z" fill="#231f20"></path><path d="M270.26,203H129.74a4,4,0,0,1-3.53-2.06c-1.81-3.24-44-79.84-15.26-128C125.48,48.54,155.44,36.18,200,36.18s74.52,12.36,89.05,36.75c28.71,48.15-13.45,124.77-15.26,128A4,4,0,0,1,270.26,203ZM200,37.18c-44.18,0-73.85,12.2-88.2,36.26-28.42,47.68,13.48,123.79,15.28,127a3,3,0,0,0,2.66,1.55H270.26a3,3,0,0,0,2.66-1.55c1.8-3.22,43.69-79.35,15.28-127C273.85,49.38,244.18,37.18,200,37.18ZM270.27,199.5a.51.51,0,0,1-.5-.5.49.49,0,0,1,.49-.5h0a.5.5,0,0,1,.5.5A.5.5,0,0,1,270.27,199.5Zm-2.14-3.5H131.87a.52.52,0,0,1-.45-.27,239.34,239.34,0,0,1-16.91-42.19C108,131.19,103.21,99.67,117,76.47c13.18-22.09,41.09-33.29,83-33.29s69.78,11.2,83,33.29c13.83,23.2,9,54.72,2.53,77.07a239.34,239.34,0,0,1-16.91,42.19A.52.52,0,0,1,268.13,196Zm-136-1H267.83a238.25,238.25,0,0,0,16.7-41.73C291,131.1,295.74,99.87,282.1,77c-13-21.77-40.61-32.81-82.1-32.81s-69.11,11-82.1,32.81c-13.64,22.88-8.85,54.11-2.43,76.28A238.25,238.25,0,0,0,132.17,195Z" fill="#231f20"></path><path d="M256,154.63a33,33,0,0,1-.33,8,26.94,26.94,0,0,1-.82,3.49,23.39,23.39,0,0,1-1.84,4.37,22.2,22.2,0,0,1-3.42,4.71c-4.37,4.61-10.61,7.24-17.65,7.76a28.31,28.31,0,0,1-14.41-2.49,22.74,22.74,0,0,1-4.41-2.78h0a22.31,22.31,0,0,1-4.09-4.3,23.29,23.29,0,0,1-1.72-2.76A30.17,30.17,0,0,1,204,158.45a44,44,0,0,1,.83-12.07c.16-.8.34-1.6.55-2.39,3.23-12.55,11.49-23.38,21.92-24.15s20.41,9,25.4,21.12c.3.74.59,1.49.86,2.25A44.22,44.22,0,0,1,256,154.63Z" fill="#090908"></path><path d="M228.44,119.8c10.11,0,19.42,9.47,24.22,21.16.3.74.59,1.49.86,2.25A44.22,44.22,0,0,1,256,154.63a33,33,0,0,1-.33,8,26.94,26.94,0,0,1-.82,3.49,23.39,23.39,0,0,1-1.84,4.37,22.2,22.2,0,0,1-3.42,4.71c-4.37,4.61-10.61,7.24-17.65,7.76q-1.25.09-2.46.09a27.48,27.48,0,0,1-11.95-2.58,22.74,22.74,0,0,1-4.41-2.78h0a22.08,22.08,0,0,1-4.09-4.31,22.38,22.38,0,0,1-1.72-2.75A30.17,30.17,0,0,1,204,158.45a44,44,0,0,1,.83-12.07c.16-.8.34-1.6.55-2.39,3.23-12.55,11.49-23.38,21.92-24.15.39,0,.79,0,1.18,0m0-1h0c-.42,0-.84,0-1.26,0-11.54.85-19.77,13.11-22.81,24.89-.21.79-.4,1.62-.57,2.45a45.13,45.13,0,0,0-.84,12.34,31.31,31.31,0,0,0,3.43,12.55,23.75,23.75,0,0,0,6,7.34l.08.07a23.67,23.67,0,0,0,4.56,2.86A28.23,28.23,0,0,0,229.44,184c.83,0,1.68,0,2.53-.09,7.49-.55,13.82-3.34,18.31-8.07a23.27,23.27,0,0,0,3.57-4.92,24.94,24.94,0,0,0,1.92-4.56,27.45,27.45,0,0,0,.85-3.61,34.23,34.23,0,0,0,.34-8.23,45.49,45.49,0,0,0-2.5-11.68c-.26-.74-.55-1.51-.87-2.29-5.44-13.23-15.31-21.78-25.15-21.78Z" fill="#231f20"></path><path d="M253.52,143.21a7.7,7.7,0,0,0-4.29,5.17c-.35,1.54-.37,3.22-1.41,4.51a3.76,3.76,0,0,1-4.21,1.1,5.66,5.66,0,0,1-3.22-3,14.4,14.4,0,0,1-.95-2.62,6.6,6.6,0,0,0-.8-2.36c-1.09-1.28-2.2,1.25-2.34,2-.29,1.54-.24,3.12-.9,4.57-1.3,2.86-4.62,3.22-7.1,1.68-3.05-1.88-3.49-5.39-5.11-8.3-.16-.3-.36-.79-.73-.79s-.7.39-.89.6a5.81,5.81,0,0,0-1,1.76,19.61,19.61,0,0,0-1,4.55c-.4,2.53-1.08,7-4.6,6.62-3.28-.37-4.79-4-5.65-6.71-.5-1.61-1-3.46-2.21-4.67a3.4,3.4,0,0,0-2.26-1c.16-.8.34-1.6.55-2.39a7.2,7.2,0,0,1,4.92,3.88c.87,1.73,1.23,3.66,2,5.44.42,1,2.23,4.12,3.61,2.79,1-1,1.1-3.13,1.3-4.42a26.32,26.32,0,0,1,1-4.56,7.35,7.35,0,0,1,2.54-3.69,2.85,2.85,0,0,1,4,.47c2.06,2.49,2,6.7,5,8.43,1.17.68,2.73.88,3.5-.46s.56-3.23.95-4.76a4.75,4.75,0,0,1,2.42-3.31,3.22,3.22,0,0,1,3.85.55c1.13,1.23,1.27,3.17,1.8,4.7.43,1.22,1.53,3.15,3.15,2.77,1.36-.31,1.33-2.55,1.54-3.61a10,10,0,0,1,1.79-4,10.33,10.33,0,0,1,4-3.25C253,141.7,253.25,142.45,253.52,143.21Z" fill="#fff"></path><path d="M255.63,162.61a26.94,26.94,0,0,1-.82,3.49A51.09,51.09,0,0,1,244,171.51a55.08,55.08,0,0,1-17.49,3,92.88,92.88,0,0,1-17.55-1.1,23.29,23.29,0,0,1-1.72-2.76q2.65.54,5.34.87a91,91,0,0,0,17.62.43,48.43,48.43,0,0,0,15.54-3.65A47.26,47.26,0,0,0,255.63,162.61Z" fill="#fff"></path><path d="M253,170.47a22.2,22.2,0,0,1-3.42,4.71,50.9,50.9,0,0,1-5.68,2.45,55,55,0,0,1-17.49,3c-2.95.07-5.92,0-8.89-.14a22.74,22.74,0,0,1-4.41-2.78,91,91,0,0,0,17,.36,48.43,48.43,0,0,0,15.55-3.65A47.47,47.47,0,0,0,253,170.47Z" fill="#fff"></path><circle cx="225.78" cy="161.07" r="2.73" fill="#fff"></circle><circle cx="217.38" cy="167.16" r="2.73" fill="#fff"></circle><circle cx="235.11" cy="167.33" r="2.73" fill="#fff"></circle><circle cx="230.25" cy="138.37" r="2.73" fill="#fff"></circle><circle cx="241.7" cy="159.9" r="2.73" fill="#fff"></circle><circle cx="239.39" cy="128.48" r="2.73" fill="#fff"></circle><circle cx="223.46" cy="129.65" r="2.73" fill="#fff"></circle><circle cx="216.75" cy="135.61" r="2.73" fill="#fff"></circle><circle cx="250.9" cy="159.22" r="2.73" fill="#fff"></circle><circle cx="242.78" cy="137.44" r="2.73" fill="#fff"></circle><path d="M173.74,165.84a31.06,31.06,0,0,1-.3,11.51,22.71,22.71,0,0,1-10.07,14.31,27.43,27.43,0,0,1-7.64,3.36h0a30.78,30.78,0,0,1-3.91.82,31.94,31.94,0,0,1-4,.35h0a27.71,27.71,0,0,1-8.06-.94,22.75,22.75,0,0,1-14.33-11.43,31.49,31.49,0,0,1-3.3-10.35,42.36,42.36,0,0,1-.44-5.66,46.69,46.69,0,0,1,3.85-19.05,35.37,35.37,0,0,1,4-7c3-4,6.73-6.93,11.05-8.11a15.42,15.42,0,0,1,1.91-.4,14.71,14.71,0,0,1,2-.17c4.93-.12,9.81,2,14.15,5.54a35.27,35.27,0,0,1,3.68,3.48,46.27,46.27,0,0,1,9.49,16.11A43.68,43.68,0,0,1,173.74,165.84Z" fill="#fff"></path><path d="M144.94,133.08c4.8,0,9.54,2.1,13.76,5.55a35.27,35.27,0,0,1,3.68,3.48,46.27,46.27,0,0,1,9.49,16.11,43.68,43.68,0,0,1,1.87,7.62,31.06,31.06,0,0,1-.3,11.51,22.71,22.71,0,0,1-10.07,14.31,27.43,27.43,0,0,1-7.64,3.36h0a30.78,30.78,0,0,1-3.91.82,31.94,31.94,0,0,1-4,.35h-.77a27.29,27.29,0,0,1-7.29-.95,22.75,22.75,0,0,1-14.33-11.43,31.49,31.49,0,0,1-3.3-10.35,42.36,42.36,0,0,1-.44-5.66,46.69,46.69,0,0,1,3.85-19.05,35.37,35.37,0,0,1,4-7c3-4,6.73-6.93,11.05-8.11a15.42,15.42,0,0,1,1.91-.4,14.71,14.71,0,0,1,2-.17h.39m0-1h-.42a14.88,14.88,0,0,0-2.1.18,15.06,15.06,0,0,0-2,.43c-4.31,1.18-8.31,4.11-11.58,8.47a36.07,36.07,0,0,0-4.15,7.19,47.76,47.76,0,0,0-3.94,19.46,45.57,45.57,0,0,0,.45,5.8,32.46,32.46,0,0,0,3.41,10.67,23.78,23.78,0,0,0,14.94,11.93,28.8,28.8,0,0,0,7.56,1h.81a35.68,35.68,0,0,0,4.09-.36,33.16,33.16,0,0,0,4-.84h0a28.72,28.72,0,0,0,7.91-3.48,23.74,23.74,0,0,0,10.5-14.94,31.87,31.87,0,0,0,.32-11.87,43.94,43.94,0,0,0-1.92-7.8,47.47,47.47,0,0,0-9.69-16.47,37.24,37.24,0,0,0-3.79-3.58c-4.62-3.77-9.6-5.77-14.39-5.77Z" fill="#231f20"></path><path d="M129.56,159c-.69,5.35-4,9.33-7.44,8.89a3,3,0,0,1-.41-.08,46.69,46.69,0,0,1,3.85-19.05C128.43,149.87,130.18,154.16,129.56,159Z" fill="#090908"></path><ellipse cx="136.19" cy="170.58" rx="6.24" ry="9.76" transform="translate(-23.49 21.76) rotate(-8.41)" fill="#090908"></ellipse><path d="M140.65,133.66a14.2,14.2,0,0,1-.8,2.13c-2.25,4.9-6.62,7.7-9.75,6.25a4,4,0,0,1-.5-.27C132.59,137.78,136.33,134.84,140.65,133.66Z" fill="#090908"></path><path d="M158.7,138.63c-2.4,2.18-7.23,1.36-11.13-2a14,14,0,0,1-3-3.57C149.48,133,154.36,135.09,158.7,138.63Z" fill="#090908"></path><ellipse cx="160.46" cy="168.91" rx="6.24" ry="9.76" transform="translate(-22.98 25.29) rotate(-8.41)" fill="#090908"></ellipse><ellipse cx="145.25" cy="151.42" rx="6.24" ry="9.76" transform="matrix(0.99, -0.15, 0.15, 0.99, -20.59, 22.88)" fill="#090908"></ellipse><path d="M156.86,187.26a12.51,12.51,0,0,1-1.13,7.76h0a30.78,30.78,0,0,1-3.91.82,31.94,31.94,0,0,1-4,.35h0a12.45,12.45,0,0,1-3.33-7.1c-.79-5.33,1.34-10.07,4.75-10.57S156.07,181.93,156.86,187.26Z" fill="#090908"></path><path d="M139.78,195.25a22.75,22.75,0,0,1-14.33-11.43,4.54,4.54,0,0,1,.63-.61c2.72-2.11,7.61-.37,10.92,3.89A12,12,0,0,1,139.78,195.25Z" fill="#090908"></path><path d="M173.44,177.35a22.71,22.71,0,0,1-10.07,14.31,12.07,12.07,0,0,1,1.54-8.28C167.07,179.46,170.58,177.09,173.44,177.35Z" fill="#090908"></path><path d="M171.87,158.22c-2.82.24-6.29-2-8.54-5.75s-2.58-8-1-10.36A46.27,46.27,0,0,1,171.87,158.22Z" fill="#090908"></path><path d="M277.74,172.72c.12,1.19.18,2.34.19,3.46a28.8,28.8,0,0,1-1,8.1c-2.9,10.31-11.61,16.34-22.39,17.45-8.82.91-17-1.68-22.34-7.87a24.12,24.12,0,0,1-4.06-6.61,32.17,32.17,0,0,1-2.26-9.18,43.23,43.23,0,0,1-.13-6.93,47.57,47.57,0,0,1,4-16.27,38.57,38.57,0,0,1,2.5-4.68c3.93-6.28,9.39-10.73,15.8-11.39,5.91-.61,11.7,2.1,16.58,6.71a37.65,37.65,0,0,1,3.59,3.93,45.16,45.16,0,0,1,5.74,9.49,46.08,46.08,0,0,1,2,5.09A43.4,43.4,0,0,1,277.74,172.72Z" fill="#090908"></path><path d="M249.68,138.71c5.33,0,10.49,2.62,14.92,6.8a37.65,37.65,0,0,1,3.59,3.93,45.16,45.16,0,0,1,5.74,9.49,46.08,46.08,0,0,1,2,5.09,43.4,43.4,0,0,1,1.85,8.7c.12,1.19.18,2.34.19,3.46a28.8,28.8,0,0,1-1,8.1c-2.9,10.31-11.61,16.34-22.39,17.45a32.7,32.7,0,0,1-3.4.18c-7.49,0-14.26-2.66-18.94-8a24.12,24.12,0,0,1-4.06-6.61,32.17,32.17,0,0,1-2.26-9.18,43.23,43.23,0,0,1-.13-6.93,47.57,47.57,0,0,1,4-16.27,38.57,38.57,0,0,1,2.5-4.68c3.93-6.28,9.39-10.73,15.8-11.39a15.53,15.53,0,0,1,1.66-.09m0-1h0a17.14,17.14,0,0,0-1.76.09c-6.3.65-12.17,4.86-16.55,11.86a39.78,39.78,0,0,0-2.56,4.8,47.8,47.8,0,0,0-4.07,16.62,43,43,0,0,0,.13,7.1,33.14,33.14,0,0,0,2.33,9.46,25.26,25.26,0,0,0,4.23,6.88c4.69,5.41,11.69,8.39,19.69,8.39a34.51,34.51,0,0,0,3.5-.19c11.71-1.2,20.4-8,23.25-18.17a29.89,29.89,0,0,0,1.06-8.38c0-1.14-.07-2.34-.2-3.55a43.94,43.94,0,0,0-1.89-8.9A48,48,0,0,0,269,148.81a39.58,39.58,0,0,0-3.68-4c-4.9-4.62-10.3-7.07-15.61-7.07Z" fill="#231f20"></path><path d="M268.19,149.44a50.28,50.28,0,0,1-36.35,5.94c-.7-.16-1.41-.32-2.12-.51a38.57,38.57,0,0,1,2.5-4.68c1.06.22,2.09.38,3,.53a45,45,0,0,0,22.52-2.09,43.42,43.42,0,0,0,6.83-3.12A37.65,37.65,0,0,1,268.19,149.44Z" fill="#fff"></path><path d="M277.93,176.18a28.8,28.8,0,0,1-1,8.1,50.51,50.51,0,0,1-30,11.07,55.34,55.34,0,0,1-14.72-1.49,24.12,24.12,0,0,1-4.06-6.61,52,52,0,0,0,5.14,1.5c10.16,2.46,21.28,1.8,30.77-2.57A44,44,0,0,0,277.93,176.18Z" fill="#fff"></path><path d="M275.89,164a48.32,48.32,0,0,1-29,10.19,65.47,65.47,0,0,1-19.68-2.65l-1.43-.42a46.59,46.59,0,0,1,.63-5.26,65.06,65.06,0,0,0,6.91,1.84c10.92,2.28,22.49,1.72,32.57-3.35a38.48,38.48,0,0,0,8.09-5.44A46.08,46.08,0,0,1,275.89,164Z" fill="#fff"></path><path d="M234.63,159.3c-3.06.32-2.57,5.08.49,4.76S237.7,159,234.63,159.3Z" fill="#fff"></path><path d="M248.88,159.06c-3.06.32-2.57,5.08.5,4.76S252,158.75,248.88,159.06Z" fill="#fff"></path><path d="M263.08,155.88c-3.06.31-2.58,5.07.49,4.75S266.15,155.56,263.08,155.88Z" fill="#fff"></path><path d="M234.55,180c-3.06.32-2.57,5.08.49,4.76S237.62,179.68,234.55,180Z" fill="#fff"></path><path d="M252.07,180.4h-.15c-3.06.32-2.57,5.08.49,4.76h.15C255.62,184.84,255.14,180.08,252.07,180.4Z" fill="#fff"></path><path d="M270.05,175.84a1.83,1.83,0,0,0-.57-.72,2.7,2.7,0,0,0-1.76-.52l-.62.15a2.35,2.35,0,0,0-1,.72l-.32.52a2.26,2.26,0,0,0-.2,1.23l0,.25a1.75,1.75,0,0,0,.3.89,2.11,2.11,0,0,0,1.39,1.13,1.76,1.76,0,0,0,.94.11l.62-.15a2.35,2.35,0,0,0,1-.72l.32-.52a2.37,2.37,0,0,0,.2-1.23l0-.25A1.93,1.93,0,0,0,270.05,175.84Z" fill="#fff"></path><path d="M242.08,143.27c-3.06.32-2.57,5.08.5,4.76S245.15,143,242.08,143.27Z" fill="#fff"></path><path d="M252.78,141.92c-3.06.32-2.58,5.08.49,4.76S255.84,141.61,252.78,141.92Z" fill="#fff"></path><path d="M217.89,171c.12,1.26.19,2.49.2,3.69a34.26,34.26,0,0,1-.71,7.62,28,28,0,0,1-2.9,7.82c-4.6,8.27-13.2,13.11-23.39,14.13a36.7,36.7,0,0,1-5.22.16,31.43,31.43,0,0,1-8.86-1.59,27,27,0,0,1-5.92-2.81A25.14,25.14,0,0,1,166.2,196a26,26,0,0,1-3-3.84,29.22,29.22,0,0,1-2.88-5.82,36.84,36.84,0,0,1-1.9-7.82q-.1-.75-.18-1.53a47.53,47.53,0,0,1-.21-6.44,53.38,53.38,0,0,1,1.05-8.8h0a53.67,53.67,0,0,1,3-9.84c4.44-10.72,12.21-19,21.78-20a21,21,0,0,1,12.35,2.8,31.91,31.91,0,0,1,6,4.36,42,42,0,0,1,4.62,4.95,48.7,48.7,0,0,1,3.67,5.29,55.4,55.4,0,0,1,3.72,7.38,56.33,56.33,0,0,1,2,5.9,51.2,51.2,0,0,1,1.26,5.69C217.67,169.21,217.79,170.12,217.89,171Z" fill="#090908"></path><path d="M185.7,131.84a21.65,21.65,0,0,1,10.5,2.89,31.91,31.91,0,0,1,6,4.36,42,42,0,0,1,4.62,4.95,48.7,48.7,0,0,1,3.67,5.29,55.4,55.4,0,0,1,3.72,7.38,56.33,56.33,0,0,1,2,5.9,51.2,51.2,0,0,1,1.26,5.69c.14.91.26,1.82.36,2.74.12,1.26.19,2.49.2,3.69a34.26,34.26,0,0,1-.71,7.62,28,28,0,0,1-2.9,7.82c-4.6,8.27-13.2,13.11-23.39,14.13a37.23,37.23,0,0,1-3.78.19l-1.44,0a31.43,31.43,0,0,1-8.86-1.59,27,27,0,0,1-5.92-2.81A25.14,25.14,0,0,1,166.2,196a26,26,0,0,1-3-3.84,29.22,29.22,0,0,1-2.88-5.82,36.84,36.84,0,0,1-1.9-7.82q-.1-.75-.18-1.53a47.53,47.53,0,0,1-.21-6.44,53.38,53.38,0,0,1,1.05-8.8h0a53.67,53.67,0,0,1,3-9.84c4.44-10.72,12.21-19,21.78-20,.62-.06,1.24-.09,1.85-.09m0-1q-1,0-1.95.09c-9.19.92-17.64,8.62-22.6,20.61a53.93,53.93,0,0,0-3.05,10v0a54.74,54.74,0,0,0-1.05,8.93,49.32,49.32,0,0,0,.2,6.57c0,.53.12,1.05.19,1.57a37.88,37.88,0,0,0,1.95,8,30.33,30.33,0,0,0,3,6,26.85,26.85,0,0,0,3.11,4,26.35,26.35,0,0,0,5.09,4.2,28.11,28.11,0,0,0,6.13,2.92,32.86,32.86,0,0,0,9.14,1.64c.49,0,1,0,1.48,0,1.27,0,2.58-.07,3.88-.2,10.94-1.09,19.52-6.29,24.17-14.63a28.76,28.76,0,0,0,3-8.1,34.91,34.91,0,0,0,.74-7.84c0-1.24-.08-2.51-.21-3.78-.09-.95-.22-1.89-.37-2.81a49.81,49.81,0,0,0-1.28-5.79,55.77,55.77,0,0,0-5.86-13.53,52.41,52.41,0,0,0-3.74-5.39,44.37,44.37,0,0,0-4.73-5.07,33.12,33.12,0,0,0-6.22-4.5,22.62,22.62,0,0,0-11-3Z" fill="#231f20"></path><path d="M202.22,139.09c-15.21,5.72-30.28,12.76-43.14,22.67a53.67,53.67,0,0,1,3-9.84c10.62-7.09,22.2-12.54,34.13-17.19A31.91,31.91,0,0,1,202.22,139.09Z" fill="#fff"></path><path d="M210.51,149.33c-18.72,6.89-37.36,15.66-52.09,29.2q-.1-.75-.18-1.53a47.53,47.53,0,0,1-.21-6.44c.62-.51,1.24-1,1.87-1.52,14-11.21,30.22-18.76,46.94-25A48.7,48.7,0,0,1,210.51,149.33Z" fill="#fff"></path><path d="M216.27,162.61c-19.05,6.94-38.09,15.78-53.07,29.56a29.22,29.22,0,0,1-2.88-5.82c1.43-1.26,2.88-2.49,4.37-3.68,14.74-11.79,31.9-19.53,49.54-26A56.33,56.33,0,0,1,216.27,162.61Z" fill="#fff"></path><path d="M217.89,171c.12,1.26.19,2.49.2,3.69-16.69,6.22-33.27,14-47,25.33A25.14,25.14,0,0,1,166.2,196c.79-.67,1.6-1.34,2.41-2,14.56-11.65,31.5-19.34,48.92-25.72C217.67,169.21,217.79,170.12,217.89,171Z" fill="#fff"></path><path d="M217.38,182.35a28,28,0,0,1-2.9,7.82,174.41,174.41,0,0,0-28.61,14.29,31.43,31.43,0,0,1-8.86-1.59C189.37,194.07,203.17,187.72,217.38,182.35Z" fill="#fff"></path><path d="M173.93,178.68a33.65,33.65,0,0,1,1.35,7.88,28.27,28.27,0,0,1-.08,3.58,24,24,0,0,1-.88,4.66,22,22,0,0,1-2.37,5.32c-3.31,5.42-8.85,9.3-15.64,11.28a28.25,28.25,0,0,1-14.6.57,22.48,22.48,0,0,1-4.9-1.79h0a22.23,22.23,0,0,1-4.9-3.36,22.82,22.82,0,0,1-2.26-2.34,30.26,30.26,0,0,1-5.78-11.19,44.35,44.35,0,0,1-1.71-12c0-.81,0-1.63,0-2.45.54-13,6.35-25.27,16.39-28.2s21.84,4.51,29.25,15.34c.46.67.89,1.34,1.31,2A44.39,44.39,0,0,1,173.93,178.68Z" fill="#090908"></path><path d="M143.23,150c8.92,0,18.31,6.78,24.61,16,.46.67.89,1.34,1.31,2a44.39,44.39,0,0,1,4.78,10.66,33.65,33.65,0,0,1,1.35,7.88,28.27,28.27,0,0,1-.08,3.58,24,24,0,0,1-.88,4.66,22,22,0,0,1-2.37,5.32c-3.31,5.42-8.85,9.3-15.64,11.28a31,31,0,0,1-8.6,1.28,25.33,25.33,0,0,1-6-.71,22.48,22.48,0,0,1-4.9-1.79h0a22.23,22.23,0,0,1-4.9-3.36,22.82,22.82,0,0,1-2.26-2.34,30.26,30.26,0,0,1-5.78-11.19,44.35,44.35,0,0,1-1.71-12c0-.81,0-1.63,0-2.45.54-13,6.35-25.27,16.39-28.2a16.61,16.61,0,0,1,4.64-.65m0-1h0a17.56,17.56,0,0,0-4.92.69c-11.11,3.25-16.6,17-17.11,29.12,0,.82,0,1.66,0,2.51a45.35,45.35,0,0,0,1.75,12.24,31.31,31.31,0,0,0,6,11.56,24.67,24.67,0,0,0,2.35,2.44,23.66,23.66,0,0,0,5.07,3.48l.11,0a22.89,22.89,0,0,0,5.05,1.84,26.13,26.13,0,0,0,6.24.74,31.86,31.86,0,0,0,8.88-1.32c7.21-2.11,12.82-6.16,16.22-11.72a23.74,23.74,0,0,0,2.47-5.56,24.17,24.17,0,0,0,.91-4.85,28.84,28.84,0,0,0,.09-3.72,34.32,34.32,0,0,0-1.39-8.11A45.15,45.15,0,0,0,170,167.5c-.41-.67-.86-1.37-1.33-2.06C161.73,155.3,152,149,143.23,149Z" fill="#231f20"></path><path d="M169.15,168A7.72,7.72,0,0,0,166,174c0,1.59.31,3.24-.44,4.72a3.77,3.77,0,0,1-3.89,1.95,5.66,5.66,0,0,1-3.76-2.21,13.78,13.78,0,0,1-1.47-2.37,6.63,6.63,0,0,0-1.28-2.14c-1.34-1-1.89,1.68-1.87,2.46,0,1.56.42,3.1.07,4.66-.67,3.07-3.84,4.11-6.59,3.12-3.37-1.2-4.53-4.54-6.73-7-.22-.26-.52-.69-.88-.62s-.6.53-.75.78a6,6,0,0,0-.65,1.93,20.26,20.26,0,0,0,0,4.67c.14,2.56.42,7.09-3.12,7.43-3.28.32-5.51-2.9-6.92-5.38-.83-1.46-1.66-3.18-3.14-4.1a3.39,3.39,0,0,0-2.42-.51c0-.81,0-1.63,0-2.45a7.17,7.17,0,0,1,5.62,2.76c1.22,1.52,2,3.32,3.08,4.91.62.88,3,3.56,4.12,2,.79-1.16.42-3.29.35-4.59a26,26,0,0,1,0-4.67,7.36,7.36,0,0,1,1.71-4.14,2.86,2.86,0,0,1,4-.37c2.53,2,3.31,6.14,6.61,7.21,1.29.42,2.85.29,3.33-1.18s-.13-3.27-.07-4.85a4.77,4.77,0,0,1,1.67-3.75,3.24,3.24,0,0,1,3.88-.27c1.37,1,1.91,2.84,2.75,4.22.67,1.11,2.15,2.76,3.66,2.06,1.26-.59.76-2.78.75-3.86a10,10,0,0,1,.91-4.28,10.38,10.38,0,0,1,3.28-4C168.3,166.67,168.73,167.34,169.15,168Z" fill="#fff"></path><path d="M175.28,186.56a28.27,28.27,0,0,1-.08,3.58,50.38,50.38,0,0,1-9.42,7.54,54.88,54.88,0,0,1-16.48,6.56,92.07,92.07,0,0,1-17.39,2.58,22.82,22.82,0,0,1-2.26-2.34c1.81,0,3.61-.1,5.41-.26A91,91,0,0,0,152.37,201a47.51,47.51,0,0,0,22.91-14.4Z" fill="#fff"></path><path d="M174.32,194.8a22,22,0,0,1-2.37,5.32,49.41,49.41,0,0,1-5,3.58,55,55,0,0,1-16.48,6.55c-2.88.68-5.79,1.28-8.72,1.72a22.48,22.48,0,0,1-4.9-1.79A91.94,91.94,0,0,0,153.5,207a47.36,47.36,0,0,0,20.82-12.18Z" fill="#fff"></path><circle cx="145.76" cy="191.29" r="2.73" fill="#fff"></circle><circle cx="138.82" cy="199" r="2.73" fill="#fff"></circle><circle cx="156.19" cy="195.46" r="2.73" fill="#fff"></circle><circle cx="145.38" cy="168.15" r="2.73" fill="#fff"></circle><circle cx="161.08" cy="186.82" r="2.73" fill="#fff"></circle><circle cx="152.25" cy="156.57" r="2.73" fill="#fff"></circle><circle cx="136.93" cy="161.04" r="2.73" fill="#fff"></circle><circle cx="131.61" cy="168.28" r="2.73" fill="#fff"></circle><circle cx="169.93" cy="184.23" r="2.73" fill="#fff"></circle><circle cx="157.45" cy="164.63" r="2.73" fill="#fff"></circle><path d="M274.14,204.73A30.72,30.72,0,0,1,268.9,215a22.72,22.72,0,0,1-15.25,8.57,27.62,27.62,0,0,1-8.34-.27h0a32.71,32.71,0,0,1-3.88-.95,33.93,33.93,0,0,1-3.74-1.4h0a28,28,0,0,1-6.87-4.33,22.76,22.76,0,0,1-8-16.49,31.48,31.48,0,0,1,1.49-10.76,42.9,42.9,0,0,1,2.05-5.3,46.66,46.66,0,0,1,11.69-15.52,35.25,35.25,0,0,1,6.66-4.57c4.42-2.31,9.06-3.34,13.47-2.54a15.92,15.92,0,0,1,1.9.46,16.55,16.55,0,0,1,1.86.7c4.5,2,8,6,10.38,11.11a36.51,36.51,0,0,1,1.82,4.73,46.31,46.31,0,0,1,1.6,18.62A43.55,43.55,0,0,1,274.14,204.73Z" fill="#090908"></path><path d="M255.17,161.15a16.85,16.85,0,0,1,3,.27,15.92,15.92,0,0,1,1.9.46,16.55,16.55,0,0,1,1.86.7c4.5,2,8,6,10.38,11.11a36.51,36.51,0,0,1,1.82,4.73,46.31,46.31,0,0,1,1.6,18.62,43.55,43.55,0,0,1-1.6,7.69A30.72,30.72,0,0,1,268.9,215a22.72,22.72,0,0,1-15.25,8.57,26.55,26.55,0,0,1-3.23.2,28.83,28.83,0,0,1-5.11-.47h0a32.71,32.71,0,0,1-3.88-.95,33.93,33.93,0,0,1-3.74-1.4h0a28,28,0,0,1-6.87-4.33,22.76,22.76,0,0,1-8-16.49,31.48,31.48,0,0,1,1.49-10.76,42.9,42.9,0,0,1,2.05-5.3,46.66,46.66,0,0,1,11.69-15.52,35.25,35.25,0,0,1,6.66-4.57,22.73,22.73,0,0,1,10.46-2.81m0-1a23.62,23.62,0,0,0-10.92,2.93,36.45,36.45,0,0,0-6.85,4.69,47.8,47.8,0,0,0-12,15.86,43.1,43.1,0,0,0-2.09,5.42,32.16,32.16,0,0,0-1.53,11.11,23.71,23.71,0,0,0,8.33,17.2,28.89,28.89,0,0,0,7.11,4.48h0a34.49,34.49,0,0,0,3.84,1.44,35,35,0,0,0,4,1h0a31.06,31.06,0,0,0,5.29.48,26.43,26.43,0,0,0,3.35-.21,23.69,23.69,0,0,0,15.91-8.94A32,32,0,0,0,275.1,205a43.12,43.12,0,0,0,1.63-7.86,47.36,47.36,0,0,0-1.64-19,36,36,0,0,0-1.87-4.86c-2.62-5.56-6.38-9.57-10.87-11.59a16.81,16.81,0,0,0-2-.75,17.48,17.48,0,0,0-2-.49,18.53,18.53,0,0,0-3.18-.28Z" fill="#231f20"></path><path d="M237.24,179.49c-2.93,4.53-7.65,6.68-10.54,4.81a3,3,0,0,1-.34-.25,46.66,46.66,0,0,1,11.69-15.52C240.16,170.76,239.89,175.4,237.24,179.49Z" fill="#fff"></path><ellipse cx="238.22" cy="192.79" rx="9.76" ry="6.24" transform="translate(-16.25 363.56) rotate(-72.85)" fill="#fff"></ellipse><path d="M258.18,161.42a15.41,15.41,0,0,1-1.64,1.58c-4.15,3.44-9.3,4.08-11.5,1.43a5,5,0,0,1-.33-.47C249.13,161.65,253.77,160.62,258.18,161.42Z" fill="#fff"></path><path d="M272.32,173.69c-3.1.93-7.11-1.89-9.19-6.58a14.11,14.11,0,0,1-1.19-4.53C266.44,164.61,269.93,168.62,272.32,173.69Z" fill="#fff"></path><ellipse cx="260.84" cy="201.76" rx="9.76" ry="6.24" transform="translate(-8.88 391.5) rotate(-72.85)" fill="#fff"></ellipse><ellipse cx="254.67" cy="179.42" rx="9.76" ry="6.24" transform="translate(8.12 369.84) rotate(-72.85)" fill="#fff"></ellipse><path d="M249.67,216.77a12.51,12.51,0,0,1-4.36,6.51h0a32.71,32.71,0,0,1-3.88-.95,33.93,33.93,0,0,1-3.74-1.4h0a12.52,12.52,0,0,1,.06-7.85c1.59-5.15,5.55-8.5,8.85-7.48S251.26,211.62,249.67,216.77Z" fill="#fff"></path><path d="M230.81,216.6a22.76,22.76,0,0,1-8-16.49,4.06,4.06,0,0,1,.83-.28c3.37-.73,7,2.95,8.17,8.22A11.89,11.89,0,0,1,230.81,216.6Z" fill="#fff"></path><path d="M268.9,215a22.72,22.72,0,0,1-15.25,8.57,12,12,0,0,1,5-6.81C262.24,214.14,266.43,213.51,268.9,215Z" fill="#fff"></path><path d="M275.74,197c-2.64-1-4.81-4.51-5.22-8.86s1.13-8.35,3.62-9.76A46.31,46.31,0,0,1,275.74,197Z" fill="#fff"></path><ellipse cx="196.92" cy="211.68" rx="38.96" ry="40.99" fill="#fff"></ellipse><path d="M196.92,253.17c-21.75,0-39.45-18.61-39.45-41.49s17.7-41.49,39.45-41.49,39.46,18.61,39.46,41.49S218.68,253.17,196.92,253.17Zm0-82c-21.2,0-38.45,18.17-38.45,40.49s17.25,40.49,38.45,40.49,38.46-18.16,38.46-40.49S218.13,171.19,196.92,171.19Z" fill="#231f20"></path><ellipse cx="196.92" cy="211.68" rx="26.38" ry="27.76" fill="#e6e7e8"></ellipse><path d="M277.23,198l-8.61,29.58-6.89,23.68s-15,11.82-58.28,11.91c-52.76.12-66-15.79-66-15.79s-1.73-5.78-4-13.28c-4.14-13.9-10-33.73-9.84-33.67C203.28,224.7,277.23,198,277.23,198Z" fill="#fff"></path><path d="M202.86,263.7c-51.91,0-65.21-15.31-65.76-16a.56.56,0,0,1-.09-.17s-1.73-5.78-4-13.28c-10.08-33.82-10-33.87-9.71-34.18a.5.5,0,0,1,.51-.11c78.51,23.91,152.47-2.16,153.21-2.43a.5.5,0,0,1,.51.11.49.49,0,0,1,.14.5l-15.5,53.26a.49.49,0,0,1-.17.25c-.61.49-15.6,11.93-58.59,12Zm-64.92-16.54c1.05,1.14,15.36,15.54,64.93,15.54h.58c40.63-.09,56.33-10.61,57.85-11.71l15.18-52.17c-8.75,2.91-78.32,24.53-152.11,2.37.58,2.16,2.73,9.61,9.64,32.8C136.06,240.9,137.69,246.34,137.94,247.16Z" fill="#231f20"></path><path d="M199.72,235.42a159.2,159.2,0,0,1-30-2.8c-23.88-4.58-38.19-13.23-38.33-13.32a.5.5,0,0,1,.52-.85c.14.09,14.33,8.66,38,13.2,21.88,4.18,56.57,5.7,97.6-10.89a.51.51,0,0,1,.65.28.5.5,0,0,1-.28.65C242.2,232.1,218.93,235.42,199.72,235.42Z" fill="#d1d3d4"></path><path d="M198.43,250.38c-21.58,0-37.31-3.87-46.87-7.2-10.9-3.81-16.21-7.66-16.43-7.82a.5.5,0,1,1,.59-.81c.22.16,21.78,15.58,66,14.8,41.4-.74,61.9-10.37,62.1-10.46a.5.5,0,0,1,.67.23.51.51,0,0,1-.23.67c-.21.1-20.88,9.81-62.52,10.56Z" fill="#d1d3d4"></path><path d="M277.23,198l-8.61,29.58c-4.64,0-8.64-2.85-8.21-8.25a30.41,30.41,0,0,1-16.19,24.22c-1.69.86-3.68,1.57-5.46.91a6.88,6.88,0,0,1-2.92-2.54,30.87,30.87,0,0,1-6.09-20.21c-2.37,5.86-4.8,11.83-8.79,16.73s-9.88,8.67-16.21,8.58c-6-.08-11.71-3.77-15-8.83s-4.39-11.35-4-17.38a34.3,34.3,0,0,1-7.61,15.07c-2.42,2.78-5.61,5.3-9.3,5.33a12.69,12.69,0,0,1-6.12-1.84,29,29,0,0,1-14.64-22.26,29.09,29.09,0,0,1-8,13.12,14.44,14.44,0,0,1-6.63,3.87c-4.14-13.9-10-33.73-9.84-33.67C203.28,224.7,277.23,198,277.23,198Z" fill="#fff"></path><path d="M205,247.55h-.23c-5.92-.08-11.83-3.55-15.42-9.05a27.45,27.45,0,0,1-4.1-13.82,34.76,34.76,0,0,1-6.68,11.56c-3.15,3.63-6.41,5.48-9.67,5.5h-.12a13,13,0,0,1-6.24-1.9,29.33,29.33,0,0,1-14.6-20.46,29.51,29.51,0,0,1-7.41,11.25,14.64,14.64,0,0,1-6.87,4,.5.5,0,0,1-.58-.34c-10.08-33.82-10-33.87-9.71-34.18a.5.5,0,0,1,.51-.11c78.51,23.91,152.47-2.16,153.21-2.43a.5.5,0,0,1,.51.11.49.49,0,0,1,.14.5l-8.61,29.58a.49.49,0,0,1-.48.36,9.07,9.07,0,0,1-6.8-2.68,7.08,7.08,0,0,1-1.44-2.36,31.09,31.09,0,0,1-15.93,21c-1.52.77-3.78,1.71-5.87.93a7.38,7.38,0,0,1-3.14-2.71,31.58,31.58,0,0,1-6.23-17.86c-2.07,5-4.37,10.1-7.86,14.4C216.79,244.37,210.83,247.55,205,247.55Zm-19.19-27.21h.07a.5.5,0,0,1,.43.53A27.89,27.89,0,0,0,190.16,238c3.41,5.23,9,8.53,14.59,8.6H205c5.49,0,11.31-3.12,15.61-8.39,4-4.88,6.38-10.84,8.71-16.61a.52.52,0,0,1,.58-.3.51.51,0,0,1,.39.52,30.5,30.5,0,0,0,6,19.88,6.36,6.36,0,0,0,2.69,2.37c1.72.64,3.71-.2,5.06-.88a29.92,29.92,0,0,0,15.92-23.82h0a.53.53,0,0,1,.54-.46.52.52,0,0,1,.46.54h0a6.88,6.88,0,0,0,1.65,5.36,8.11,8.11,0,0,0,5.69,2.35l8.23-28.29c-8.75,2.91-78.32,24.53-152.11,2.37.58,2.14,2.7,9.52,9.5,32.35a14.25,14.25,0,0,0,5.94-3.64A28.35,28.35,0,0,0,147.63,217a.51.51,0,0,1,.52-.37.53.53,0,0,1,.46.46A28.28,28.28,0,0,0,163,239a11.84,11.84,0,0,0,5.87,1.78c3,0,6-1.76,8.93-5.16a33.69,33.69,0,0,0,7.5-14.85A.5.5,0,0,1,185.78,220.34Z" fill="#231f20"></path><path d="M119.56,187.34s20,16,73.58,17.47c48.78,1.32,73.58-8.84,88.22-17.39l-1.88,17.4S248.94,221,194.76,219.26s-75.2-18.57-75.2-18.57Z" fill="#fff"></path><path d="M202.88,219.89q-4,0-8.14-.13c-53.72-1.75-75.28-18.51-75.5-18.68a.53.53,0,0,1-.18-.39V187.34a.5.5,0,0,1,.28-.45.51.51,0,0,1,.53.06c.2.16,20.51,15.94,73.28,17.36,49.95,1.36,74.12-9.24,88-17.32a.49.49,0,0,1,.52,0,.5.5,0,0,1,.23.47L280,204.87a.52.52,0,0,1-.26.39C279.43,205.41,251.55,219.89,202.88,219.89Zm-82.82-19.45c2.21,1.63,24,16.66,74.72,18.32,50.94,1.67,81.29-12.79,84.23-14.27l1.75-16.15c-29,16.54-63.83,17.61-87.64,17-47.33-1.27-68.79-14.09-73.06-17Z" fill="#231f20"></path><path d="M239.4,89.92c3.91-18-.82-31.94-17-24.84-12.28,5.4-16.71,35.78-18.13,50a31.61,31.61,0,0,0-26.68,3.48c-5-13.41-17.09-41.63-30.34-43.71-17.43-2.72-20.93,9.67-12.55,26.07,5.15,10.08,22.95,30.31,28.73,34.49a52.41,52.41,0,0,0-4.34,28.27c2.81,21.56,19.07,31.17,41.62,28.23s35.81-16.39,33-38c-1.22-9.43-6.58-20.9-12.69-28.27C225.58,120.2,237,101,239.4,89.92Z" fill="#fff"></path><path d="M193.08,193c-19.35,0-32-10.54-34.45-29.18a52.69,52.69,0,0,1,4.22-28.18c-6.29-4.8-23.5-24.53-28.56-34.43-4.91-9.61-5.74-17.87-2.27-22.66,2.77-3.83,8.08-5.25,15.35-4.12,5.62.88,17,7.7,30.51,43.45a32.16,32.16,0,0,1,26-3.38c3.87-38,13.15-47.53,18.36-49.83,6-2.64,10.76-2.59,14.12.16,4.79,3.92,6.11,13.35,3.53,25.25-2.42,11.19-13.59,29.88-18.19,35.68,6.23,7.66,11.37,19.19,12.55,28.2,2.74,21-9.76,35.43-33.43,38.52A60,60,0,0,1,193.08,193ZM142.79,75c-4.61,0-8,1.38-10,4.08-3.24,4.48-2.38,12.36,2.36,21.63,5.1,10,22.65,30,28.58,34.31a.51.51,0,0,1,.16.62,51.67,51.67,0,0,0-4.3,28c2.66,20.41,18,30.79,41.07,27.8s35.23-17,32.57-37.4c-1.17-9-6.34-20.49-12.58-28a.49.49,0,0,1,0-.63c4.26-5.19,15.85-24.51,18.25-35.58,2.5-11.52,1.3-20.6-3.19-24.27-3-2.49-7.46-2.5-13.09,0-12.17,5.35-16.53,36.48-17.83,49.61a.51.51,0,0,1-.23.37.52.52,0,0,1-.42.06A31.16,31.16,0,0,0,177.89,119a.48.48,0,0,1-.42,0,.49.49,0,0,1-.31-.3c-4.63-12.36-16.81-41.33-29.95-43.38A28.31,28.31,0,0,0,142.79,75Zm96.62,14.92h0Z" fill="#231f20"></path><path d="M173.24,122.4S156,83.54,146.31,82.72,139.05,91,143,99,167.84,130,167.84,130,170.3,123.06,173.24,122.4Z" fill="#e6e7e8"></path><path d="M209.48,118s5.56-40.78,14.71-44,9.13,6.09,7.35,14.86-14.84,34.87-14.84,34.87S212.48,117.88,209.48,118Z" fill="#e6e7e8"></path><path d="M201.23,164.19c.21,1.65-1.46,3.93-3.84,4.23s-4.56-1.48-4.77-3.12,1.64-2.52,4-2.82S201,162.55,201.23,164.19Z" fill="#231f20"></path><path d="M197.68,171.19a.5.5,0,0,1-.49-.43l-.29-2.27a.5.5,0,0,1,.43-.56.52.52,0,0,1,.56.43l.29,2.27a.51.51,0,0,1-.43.56Z" fill="#231f20"></path><path d="M191.93,173.89a6.13,6.13,0,0,1-1.21-.12,7.06,7.06,0,0,1-4.53-3.28.48.48,0,0,1,.19-.67.5.5,0,0,1,.68.19,6.18,6.18,0,0,0,3.86,2.79c2.05.39,4.35-.44,6.84-2.46a.47.47,0,0,1,.53-.06s3,1.46,5.61.5a5.12,5.12,0,0,0,2.87-3,.5.5,0,0,1,.65-.26.49.49,0,0,1,.26.65,6,6,0,0,1-3.44,3.52,8.75,8.75,0,0,1-6.09-.41A10.33,10.33,0,0,1,191.93,173.89Z" fill="#231f20"></path><path d="M177.38,151.9a.53.53,0,0,1-.24-.06.49.49,0,0,1-.2-.67c.09-.16,2.16-4,5.25-4.22,1.71-.12,3.33.86,4.83,2.92a.48.48,0,0,1-.1.69.5.5,0,0,1-.7-.1c-1.29-1.76-2.6-2.61-3.95-2.51-2.55.18-4.43,3.65-4.45,3.69A.49.49,0,0,1,177.38,151.9Z" fill="#231f20"></path><path d="M201.72,149.46a.54.54,0,0,1-.22-.05.51.51,0,0,1-.23-.67c1.14-2.28,2.57-3.53,4.26-3.7,3.09-.31,5.79,3.11,5.9,3.26a.5.5,0,1,1-.78.61s-2.5-3.14-5-2.88c-1.33.14-2.5,1.2-3.47,3.15A.48.48,0,0,1,201.72,149.46Z" fill="#231f20"></path><path d="M170.85,196.27c-3.28-1-7.09-1.83-10,0a8.42,8.42,0,0,0-3.34,5.24c-.5,2.17-1.42,5.73-.19,7.84a2.34,2.34,0,0,0,3.56.79c1.58-1.15,1.88-3.26,1.84-5.07.44,2,0,4.33,1.16,6a2.7,2.7,0,0,0,4.07.56,4.24,4.24,0,0,0,1.52-3,10.85,10.85,0,0,0,.31,2.84,3.7,3.7,0,0,0,1.66,2.25c2.56,1.39,4-2.47,4.24-4.36-.18,1.22-.25,2.7.74,3.42,1.28.92,3.07-.31,3.79-1.71,1.15-2.24,2.17-8.53.64-10.74S173.33,197.06,170.85,196.27Z" fill="#fff"></path><path d="M172.53,214.56a2.68,2.68,0,0,1-1.3-.35,4.14,4.14,0,0,1-1.9-2.55c-.05-.18-.09-.36-.13-.54a3.92,3.92,0,0,1-.91,1,3.36,3.36,0,0,1-2.63.75,3.25,3.25,0,0,1-2.16-1.42,5.78,5.78,0,0,1-.89-2.57,4.42,4.42,0,0,1-1.4,1.73,3,3,0,0,1-2.33.55,3,3,0,0,1-2-1.49c-1.27-2.18-.47-5.61.06-7.88l.08-.33a8.8,8.8,0,0,1,3.54-5.55c3.11-2,7.19-1.12,10.4-.11.52.17,1.2.35,2,.54,2.95.78,7,1.84,8.33,3.77,1.68,2.43.58,8.92-.61,11.25a4.34,4.34,0,0,1-2.64,2.22,2.22,2.22,0,0,1-1.88-.34,2.26,2.26,0,0,1-.79-1,4.48,4.48,0,0,1-1.81,2.1A2.35,2.35,0,0,1,172.53,214.56Zm-3-6.38h0a.5.5,0,0,1,.49.49,10.62,10.62,0,0,0,.29,2.71,3.21,3.21,0,0,0,1.42,2,1.42,1.42,0,0,0,1.4.09c1.18-.59,1.92-2.82,2.1-4.08h0a.51.51,0,0,1,.57-.43.51.51,0,0,1,.42.57h0c-.15,1.08-.23,2.38.55,2.94a1.22,1.22,0,0,0,1.06.18,3.38,3.38,0,0,0,2-1.71c1.09-2.12,2.09-8.19.68-10.22-1.12-1.63-5.12-2.68-7.77-3.37-.78-.2-1.47-.38-2-.55h0c-3-.95-6.79-1.81-9.55,0a7.83,7.83,0,0,0-3.12,4.93L158,202c-.49,2.11-1.23,5.31-.17,7.14a2,2,0,0,0,1.3,1,1.94,1.94,0,0,0,1.54-.38c1.15-.84,1.68-2.36,1.63-4.65a.49.49,0,0,1,.44-.51.5.5,0,0,1,.55.39,14.72,14.72,0,0,1,.25,2.29,6.87,6.87,0,0,0,.83,3.56,2.26,2.26,0,0,0,1.5,1,2.41,2.41,0,0,0,1.85-.56,3.66,3.66,0,0,0,1.33-2.67A.49.49,0,0,1,169.5,208.18Z" fill="#231f20"></path><path d="M224.79,196.27c3.28-1,7.09-1.83,10,0a8.36,8.36,0,0,1,3.33,5.24c.5,2.17,1.42,5.73.19,7.84a2.34,2.34,0,0,1-3.56.79c-1.58-1.15-1.87-3.26-1.83-5.07-.44,2,0,4.33-1.16,6a2.71,2.71,0,0,1-4.08.56,4.19,4.19,0,0,1-1.51-3,10.86,10.86,0,0,1-.32,2.84,3.7,3.7,0,0,1-1.66,2.25c-2.56,1.39-4-2.47-4.23-4.36.17,1.22.25,2.7-.75,3.42-1.28.92-3.06-.31-3.78-1.71-1.15-2.24-2.17-8.53-.65-10.74S222.31,197.06,224.79,196.27Z" fill="#fff"></path><path d="M223.11,214.56a2.32,2.32,0,0,1-1-.24,4.48,4.48,0,0,1-1.81-2.1,2.29,2.29,0,0,1-.8,1,2.24,2.24,0,0,1-1.88.35,4.44,4.44,0,0,1-2.64-2.23c-1.19-2.33-2.29-8.82-.61-11.25,1.34-1.93,5.38-3,8.34-3.77.76-.19,1.44-.37,2-.54h0c3.2-1,7.28-1.91,10.39.11a8.85,8.85,0,0,1,3.55,5.55l.08.34c.53,2.27,1.32,5.69.05,7.87a3,3,0,0,1-2,1.49,2.9,2.9,0,0,1-2.33-.55,4.53,4.53,0,0,1-1.41-1.73,5.64,5.64,0,0,1-.88,2.57,3.25,3.25,0,0,1-2.17,1.42,3.38,3.38,0,0,1-2.62-.75,3.92,3.92,0,0,1-.91-1,5.36,5.36,0,0,1-.14.54,4.1,4.1,0,0,1-1.9,2.55A2.64,2.64,0,0,1,223.11,214.56Zm-2.69-5.22c.19,1.26.92,3.49,2.11,4.08a1.4,1.4,0,0,0,1.39-.09,3.18,3.18,0,0,0,1.42-2,10.2,10.2,0,0,0,.3-2.71.5.5,0,0,1,.49-.49h0a.5.5,0,0,1,.5.47,3.69,3.69,0,0,0,1.32,2.67,2.43,2.43,0,0,0,1.86.56,2.22,2.22,0,0,0,1.49-1,6.89,6.89,0,0,0,.84-3.57,14.72,14.72,0,0,1,.25-2.28.5.5,0,0,1,.55-.39.51.51,0,0,1,.44.51c0,2.29.48,3.82,1.63,4.65a1.92,1.92,0,0,0,1.53.38,2,2,0,0,0,1.3-1c1.07-1.83.33-5-.16-7.13l-.08-.35a7.87,7.87,0,0,0-3.12-4.93c-2.76-1.8-6.55-.94-9.55,0h0c-.53.17-1.23.35-2,.55-2.64.69-6.64,1.74-7.77,3.37-1.4,2-.4,8.1.68,10.22a3.39,3.39,0,0,0,2,1.71,1.22,1.22,0,0,0,1.06-.18c.78-.56.7-1.87.54-2.94h0a.51.51,0,0,1,.42-.57.51.51,0,0,1,.57.43Zm4.37-13.07h0Z" fill="#231f20"></path><path d="M180.32,117.61c-3.5,5.88-9.22,13-11,18.84l7-1.72,4.33,6s2.37-11.57,9.11-21.13Z" fill="#090908"></path><path d="M180.63,141.25a.52.52,0,0,1-.41-.21l-4.13-5.75-6.7,1.65a.51.51,0,0,1-.48-.15.49.49,0,0,1-.11-.49c1.27-4.07,4.36-8.68,7.34-13.13,1.36-2,2.66-4,3.75-5.82a.51.51,0,0,1,.53-.23l9.43,2a.5.5,0,0,1,.36.3.49.49,0,0,1-.06.47c-6.61,9.38-9,20.84-9,20.95a.49.49,0,0,1-.39.39Zm-4.33-7a.49.49,0,0,1,.41.21l3.68,5.13A65.26,65.26,0,0,1,188.9,120l-8.34-1.78c-1.06,1.77-2.29,3.61-3.59,5.55-2.73,4.08-5.55,8.29-6.93,12l6.14-1.51Z" fill="#231f20"></path><path d="M194,120c5.4,6.7,10.88,14,13.49,18.6,0,0,3.65-6,1.62-9l7.6.28a73.53,73.53,0,0,0-13.82-15.57Z" fill="#090908"></path><path d="M207.54,139.1h0a.5.5,0,0,1-.43-.25c-2.84-5.06-8.89-12.88-13.45-18.54a.5.5,0,0,1-.11-.39.54.54,0,0,1,.23-.34l8.89-5.67a.5.5,0,0,1,.59,0,74.91,74.91,0,0,1,13.91,15.67.51.51,0,0,1,0,.52.45.45,0,0,1-.45.26l-6.75-.25c1.21,3.29-1.87,8.47-2,8.71A.49.49,0,0,1,207.54,139.1Zm-12.76-19c4.31,5.37,9.8,12.48,12.74,17.46.87-1.66,2.65-5.62,1.22-7.67a.51.51,0,0,1,0-.53.52.52,0,0,1,.46-.26l6.61.24A73.12,73.12,0,0,0,202.88,115Z" fill="#231f20"></path><path d="M189.6,111.63s-21.84-8.66-26-6-1.35,7.77.52,12.69c0,0-4.72,12.17.8,15.19s23.74-11,26.11-15.91S189.6,111.63,189.6,111.63Z" fill="#090908"></path><path d="M166.81,134.38a4.4,4.4,0,0,1-2.14-.48c-5.52-3-1.69-14-1.09-15.63l-.67-1.68c-1.77-4.38-3.59-8.92.41-11.43,4.25-2.67,24.09,5.06,26.45,6a3.72,3.72,0,0,1,2.21,1.93c.56,1.25.39,2.82-.51,4.68-1.84,3.8-13.57,13.51-21.4,16A11.12,11.12,0,0,1,166.81,134.38Zm-.77-28.8a4.28,4.28,0,0,0-2.19.43c-3.29,2.06-1.7,6,0,10.21.25.62.5,1.25.74,1.88a.53.53,0,0,1,0,.35c-.05.12-4.5,11.8.57,14.57,1,.53,2.56.47,4.61-.19,7.64-2.44,19-11.83,20.81-15.5.76-1.57.93-2.85.5-3.81a2.7,2.7,0,0,0-1.6-1.4l-.05,0C184.29,110.06,171.65,105.58,166,105.58Z" fill="#231f20"></path><path d="M192.79,112s12.8-16.08,17-14.65,3,6.74,2,13.14c0,0,4.89.39,5,7.75.07,6.45-3.4,9.17-7.6,8.2s-15.76-7-15.76-7Z" fill="#090908"></path><path d="M210.75,127.16A7.34,7.34,0,0,1,209,127c-4.21-1-15.41-6.76-15.88-7a.52.52,0,0,1-.27-.4l-.59-7.47a.56.56,0,0,1,.1-.36c1.34-1.67,13.15-16.3,17.53-14.8s3.48,6.54,2.54,12.42l-.13.79c1.35.36,4.83,1.89,4.91,8.15,0,3.5-.93,6.14-2.79,7.63A5.82,5.82,0,0,1,210.75,127.16Zm-16.88-8c1.69.87,11.64,5.93,15.4,6.8a5.15,5.15,0,0,0,4.56-.86c1.62-1.29,2.45-3.66,2.42-6.84-.09-6.78-4.34-7.25-4.52-7.27a.5.5,0,0,1-.45-.57l.2-1.27c.9-5.65,1.62-10.12-1.88-11.32-2.76-.95-11.4,8.22-16.29,14.33Z" fill="#231f20"></path><path d="M188.18,119.74a2.36,2.36,0,0,0,.71,1.9,2.31,2.31,0,0,0,1.22.27,9.67,9.67,0,0,0,3.13-.3c4.61-1.4,2.78-9-.33-11.27a3.63,3.63,0,0,0-4.81.72C186.89,112.79,188.06,117.65,188.18,119.74Z" fill="#090908"></path><path d="M190.73,122.42h-.63a2.64,2.64,0,0,1-1.49-.36,2.81,2.81,0,0,1-.93-2.28h0c0-.51-.13-1.21-.24-2-.34-2.47-.77-5.54.25-7a3.66,3.66,0,0,1,2.45-1.46,4.15,4.15,0,0,1,3.06.62c2.21,1.58,3.72,5.53,3.24,8.47a4.35,4.35,0,0,1-3.05,3.69A9.29,9.29,0,0,1,190.73,122.42Zm-2-2.7c0,.63.12,1.25.49,1.5a1.81,1.81,0,0,0,1,.19,9.25,9.25,0,0,0,3-.28,3.38,3.38,0,0,0,2.35-2.89c.42-2.57-.93-6.14-2.83-7.49a3.1,3.1,0,0,0-2.31-.46,2.7,2.7,0,0,0-1.8,1c-.79,1.13-.38,4.11-.08,6.28.12.83.22,1.54.25,2.1Z" fill="#231f20"></path><path d="M167.21,127a.51.51,0,0,1-.36-.15c-1.75-1.81-3.17-8.17-3.23-8.44a.49.49,0,0,1,.38-.59.5.5,0,0,1,.6.38c.39,1.76,1.68,6.62,3,8a.5.5,0,0,1,0,.71A.54.54,0,0,1,167.21,127Z" fill="#231f20"></path><path d="M211.77,111a.55.55,0,0,1-.25-.07l-3.47-2.06a.5.5,0,0,1-.17-.68.5.5,0,0,1,.68-.18l3.47,2.06a.5.5,0,0,1-.26.93Z" fill="#231f20"></path><path d="M187.73,116.57a.41.41,0,0,1-.19,0c-.08,0-7.76-3.17-14.06-3.72a.51.51,0,0,1-.45-.55.5.5,0,0,1,.54-.45c6.45.57,14,3.66,14.35,3.8a.5.5,0,0,1,.27.65A.51.51,0,0,1,187.73,116.57Z" fill="#231f20"></path><path d="M177.19,123.94a.49.49,0,0,1-.35-.15.49.49,0,0,1,0-.7c2.72-2.77,10.13-6,10.44-6.09a.5.5,0,0,1,.66.27.49.49,0,0,1-.27.65c-.07,0-7.54,3.24-10.11,5.87A.51.51,0,0,1,177.19,123.94Z" fill="#231f20"></path><path d="M195.83,115.92a.49.49,0,0,1-.48-.38c-.11-.41-.11-.41,3.9-2.88a65.6,65.6,0,0,1,5.94-3.34.5.5,0,0,1,.66.25.5.5,0,0,1-.25.66,105,105,0,0,0-9.47,5.59.51.51,0,0,1-.18.09Z" fill="#231f20"></path><path d="M206.87,121.91a.41.41,0,0,1-.19,0A110.51,110.51,0,0,0,196,118.64a.51.51,0,0,1-.36-.61.49.49,0,0,1,.61-.36,109.67,109.67,0,0,1,10.8,3.28.5.5,0,0,1,.28.65A.51.51,0,0,1,206.87,121.91Z" fill="#231f20"></path><path d="M195.26,227.49a1.52,1.52,0,0,0-.42-.64,1.43,1.43,0,0,0-.64-.42,1.58,1.58,0,0,0-.77-.17l-.53.07a2.06,2.06,0,0,0-.89.52l-.31.4a2,2,0,0,0-.27,1v.38a1.47,1.47,0,0,0,.17.77,1.5,1.5,0,0,0,.41.64,2.2,2.2,0,0,0,1.42.59l.53-.07a2,2,0,0,0,.88-.52l.31-.4a1.93,1.93,0,0,0,.28-1v-.38A1.58,1.58,0,0,0,195.26,227.49Z" fill="#d1d3d4"></path><path d="M202.76,238a1.5,1.5,0,0,0-.41-.64,2.29,2.29,0,0,0-1.41-.59l-.54.07a2.08,2.08,0,0,0-.88.52l-.31.4a2,2,0,0,0-.27,1v.38a1.47,1.47,0,0,0,.17.77,1.5,1.5,0,0,0,.41.64,1.46,1.46,0,0,0,.65.42,1.53,1.53,0,0,0,.77.17l.53-.07a2,2,0,0,0,.88-.52l.31-.4a2.1,2.1,0,0,0,.28-1v-.38A1.48,1.48,0,0,0,202.76,238Z" fill="#d1d3d4"></path><path d="M214.08,234.52c-2.58,0-2.58,4,0,4S216.65,234.52,214.08,234.52Z" fill="#d1d3d4"></path><path d="M219.71,226.64c-2.58,0-2.58,4,0,4S222.28,226.64,219.71,226.64Z" fill="#d1d3d4"></path><path d="M180.05,223.74a1.74,1.74,0,0,0-1.06-1.06,1.43,1.43,0,0,0-.77-.17l-.53.07a2,2,0,0,0-.88.51l-.31.41a2,2,0,0,0-.28,1v.19a2.29,2.29,0,0,0,.59,1.41,1.5,1.5,0,0,0,.64.41,1.48,1.48,0,0,0,.77.18l.53-.08a2,2,0,0,0,.89-.51l.31-.41a2,2,0,0,0,.27-1v-.19A1.45,1.45,0,0,0,180.05,223.74Z" fill="#d1d3d4"></path><path d="M171.09,230c-2.57,0-2.58,4,0,4S173.67,230,171.09,230Z" fill="#d1d3d4"></path><path d="M160.58,228c-2.58,0-2.58,4,0,4S163.16,228,160.58,228Z" fill="#d1d3d4"></path><path d="M156.64,219.5c-2.58,0-2.58,4,0,4S159.21,219.5,156.64,219.5Z" fill="#d1d3d4"></path><path d="M141.24,213.69c-2.57,0-2.57,4,0,4S143.82,213.69,141.24,213.69Z" fill="#d1d3d4"></path><path d="M136.74,221.19c-2.57,0-2.58,4,0,4S139.32,221.19,136.74,221.19Z" fill="#d1d3d4"></path><path d="M235.85,222.7c-2.57,0-2.58,4,0,4S238.43,222.7,235.85,222.7Z" fill="#d1d3d4"></path><path d="M238.85,231.89c-2.57,0-2.58,4,0,4S241.43,231.89,238.85,231.89Z" fill="#d1d3d4"></path><path d="M246.92,233.58c-2.57,0-2.57,4,0,4S249.5,233.58,246.92,233.58Z" fill="#d1d3d4"></path><path d="M254.76,224.86a1.49,1.49,0,0,0-.42-.64,1.41,1.41,0,0,0-.64-.41,1.46,1.46,0,0,0-.77-.18l-.53.08a1.91,1.91,0,0,0-.88.51l-.32.4a2,2,0,0,0-.27,1v.19a1.55,1.55,0,0,0,.17.77,1.52,1.52,0,0,0,.42.65,1.5,1.5,0,0,0,.64.41,1.58,1.58,0,0,0,.77.17l.53-.07a2,2,0,0,0,.88-.51l.32-.41a2,2,0,0,0,.27-1v-.19A1.58,1.58,0,0,0,254.76,224.86Z" fill="#d1d3d4"></path><path d="M265.13,215.37c-2.57,0-2.58,4,0,4S267.71,215.37,265.13,215.37Z" fill="#d1d3d4"></path><path d="M264.63,132.34a.51.51,0,0,1-.4-.2c-3-3.88-8.82-3.77-8.88-3.77a.51.51,0,0,1-.51-.49.49.49,0,0,1,.48-.51c.27,0,6.35-.13,9.7,4.16a.5.5,0,0,1-.09.7A.5.5,0,0,1,264.63,132.34Z" fill="#d1d3d4"></path><path d="M260,137.94a.48.48,0,0,1-.42-.23c-1.81-2.93-5.92-3.33-6-3.33a.5.5,0,0,1,.09-1c.19,0,4.64.45,6.72,3.8a.51.51,0,0,1-.16.69A.54.54,0,0,1,260,137.94Z" fill="#d1d3d4"></path></svg>