<svg xmlns="http://www.w3.org/2000/svg" viewBox="0 0 400 300" width="406" height="306" class="illustration styles_illustrationTablet__1DWOa"><g id="_571_lunch_break_flatline" data-name="#571_lunch_break_flatline"><path d="M141.78,178.85,152,237.62s9.53-2.69,10-2.88,5.67-40.78,2.67-49.23-15.43-15.87-17.67-16.62-5.28,8.1-5.28,8.1" fill="#fff"></path><path d="M152,238.12a.5.5,0,0,1-.26-.08.48.48,0,0,1-.23-.34l-10.25-58.77a.5.5,0,0,1,.4-.58.51.51,0,0,1,.58.41L152.43,237c3.46-1,8.17-2.32,9.24-2.65.79-3.17,5.37-40.83,2.59-48.66-3-8.49-15.49-15.69-17.36-16.31-1.06-.37-3.26,3.73-4.65,7.78a.5.5,0,1,1-.94-.33c.75-2.18,3.38-9.25,5.91-8.4,2.69.9,15,8.53,18,16.92,1.62,4.56.9,17.7,0,27.93-.59,6.74-1.25,12.26-1.6,14.95-.87,6.8-1,6.86-1.37,7-.5.19-9.08,2.61-10.06,2.89Z" fill="#231f20"></path><path d="M152,237.62s-1.26,9.65,1,10.4,29.56,1.18,29-3.14-20-10.14-20-10.14Z" fill="#231f20"></path><path d="M162.07,249a50.53,50.53,0,0,1-9.19-.53c-2.47-.82-1.5-9.21-1.28-10.88a.44.44,0,0,1,.31-.37l10-2.87a.36.36,0,0,1,.25,0c2,.6,19.69,6,20.28,10.5a1.61,1.61,0,0,1-.69,1.49C179.32,248.33,169.6,249,162.07,249Zm-9.64-11c-.47,3.85-.55,9.22.73,9.64,1.8.61,24.41,1,28-2,.43-.34.39-.61.38-.69-.43-3.29-14.12-8.11-19.53-9.74Z" fill="#231f20"></path><path d="M134.72,185.19s8.93-.72,9.87.78,22.66,51.65,22.66,51.65L178.17,232s-12.85-47.6-14.61-51.68S151,169.1,143.91,168.16,134.72,185.19,134.72,185.19Z" fill="#fff"></path><path d="M167.25,238.12a.47.47,0,0,1-.17,0,.51.51,0,0,1-.29-.27c-7.51-17.33-21.9-50.42-22.63-51.58-.46-.75-5.23-.89-9.4-.55a.5.5,0,0,1-.4-.15.51.51,0,0,1-.13-.41c.06-.52,1.52-12.75,6.24-16.44a4.55,4.55,0,0,1,3.5-1c7.36,1,18.23,8.23,20.05,12.43s14.11,49.8,14.64,51.75a.5.5,0,0,1-.26.57l-10.92,5.64A.46.46,0,0,1,167.25,238.12ZM139.09,184.5c2.59,0,5.32.25,5.92,1.21.91,1.45,20.1,45.72,22.48,51.22l10.1-5.21c-1.24-4.57-12.84-47.42-14.49-51.22s-12.31-10.93-19.26-11.84a3.55,3.55,0,0,0-2.75.82c-3.83,3-5.43,12.65-5.79,15.17C136.25,184.58,137.65,184.5,139.09,184.5Z" fill="#231f20"></path><path d="M144.59,115s3.86-2.39,4.07-3.1,1.9-6.47,3-6.75,1.33.35.7,3.45c0,0,5.28-5.92,6.76-5.07s2,4.43,1.47,6-9.29,9.57-11.89,12Z" fill="#fff"></path><path d="M148.66,122.13h-.07a.49.49,0,0,1-.36-.23l-4.07-6.62a.5.5,0,0,1,.16-.68,20,20,0,0,0,3.87-2.84c2-6.73,2.94-7,3.3-7.08a1.34,1.34,0,0,1,1.26.2c.37.36.49,1,.35,2.16,1.94-2,4.88-4.7,6.22-3.93,1.73,1,2.33,4.87,1.71,6.66-.48,1.38-5.46,6.09-10.51,10.81L149,122A.48.48,0,0,1,148.66,122.13Zm-3.39-7,3.49,5.67,1.08-1c2.93-2.74,9.8-9.15,10.24-10.41.52-1.5-.09-4.79-1.25-5.46-.59-.33-3.52,2-6.14,5a.5.5,0,0,1-.86-.43c.49-2.42.3-2.84.23-2.91h0a.8.8,0,0,0-.32,0c-.29.15-1.18,1.66-2.58,6.34C148.93,112.75,146.79,114.21,145.27,115.17Z" fill="#231f20"></path><path d="M115.15,126.53l29.37-13.26,6.67,7s-10.23,16-18.86,15.7S115.15,126.53,115.15,126.53Z" fill="#090908"></path><path d="M162,126.53h23.84a0,0,0,0,1,0,0v3.78a11.3,11.3,0,0,1-11.3,11.3h-1.25a11.3,11.3,0,0,1-11.3-11.3v-3.78a0,0,0,0,1,0,0Z" fill="#231f20"></path><path d="M174.53,142.1h-1.25a11.8,11.8,0,0,1-11.79-11.79v-3.78a.5.5,0,0,1,.5-.5h23.83a.5.5,0,0,1,.5.5v3.78A11.8,11.8,0,0,1,174.53,142.1Zm-12-15.07v3.28a10.8,10.8,0,0,0,10.79,10.79h1.25a10.8,10.8,0,0,0,10.79-10.79V127Z" fill="#231f20"></path><path d="M153.63,133.06c.19.28,7.89,1.4,9.2,1.12s2.35-2.34,3.66-2.53,7.23-.15,9,1.29,3.38,8.95,2.35,9.51-12.58-.48-14.64-.57-12-.1-12-.1Z" fill="#fff"></path><path d="M175.92,143.11c-2,0-5.39-.21-10-.55-1.24-.09-2.22-.16-2.7-.18-2-.1-11.89-.1-12-.1a.49.49,0,0,1-.48-.63l2.44-8.73a.49.49,0,0,1,.41-.36.46.46,0,0,1,.36.09c.8.3,7.68,1.28,8.81,1a3.87,3.87,0,0,0,1.54-1.13,4.29,4.29,0,0,1,2.15-1.41c1.29-.18,7.43-.18,9.39,1.4,1.67,1.34,3.05,6.92,2.84,9.16a1.35,1.35,0,0,1-.57,1.18A6.06,6.06,0,0,1,175.92,143.11Zm-24.07-1.83c2.27,0,9.61,0,11.38.1.48,0,1.47.09,2.72.18,3.24.24,10.84.79,11.67.44.51-.74-.9-7.44-2.43-8.67s-7.37-1.37-8.63-1.19a3.68,3.68,0,0,0-1.59,1.13,4.5,4.5,0,0,1-2,1.4c-1.48.32-6.9-.56-8.94-1.07Z" fill="#231f20"></path><path d="M110.37,90.11s5.82,5.59,6.57,10.28S115.81,150,121.44,164l27.22,3.56L138.34,186H89.78L79.24,145s3.35-28.5,9-46.52,15.58-18.7,22.15-8.41" fill="#090908"></path><polygon points="135.39 195.17 144.59 249.99 150.22 249.99 140.37 191.49 135.39 195.17" fill="#fff"></polygon><path d="M150.22,250.49h-5.63a.51.51,0,0,1-.5-.42l-9.19-54.82a.5.5,0,0,1,.19-.48l5-3.69a.53.53,0,0,1,.49-.06.51.51,0,0,1,.3.38l9.85,58.51a.46.46,0,0,1-.11.4A.46.46,0,0,1,150.22,250.49Zm-5.21-1h4.62L140,192.37l-4.08,3Z" fill="#231f20"></path><path d="M143.84,195.17H82.08l-19.79-81.9s8.15,4.65,10.41,9.11S89.78,186,89.78,186h54.81Z" fill="#fff"></path><path d="M143.84,195.67H82.08a.49.49,0,0,1-.48-.38l-19.8-81.9a.5.5,0,0,1,.73-.55c.34.19,8.32,4.77,10.61,9.32,2.18,4.32,15.64,57.8,17,63.31h54.42a.52.52,0,0,1,.37.16.53.53,0,0,1,.13.38l-.75,9.2A.51.51,0,0,1,143.84,195.67Zm-61.36-1h60.9l.66-8.2H89.78a.5.5,0,0,1-.49-.38c-.15-.59-14.84-59.12-17-63.48-1.69-3.36-7-6.9-9.2-8.29Z" fill="#231f20"></path><polygon points="90.34 195.17 77.95 249.99 73.07 249.99 84.33 195.17 90.34 195.17" fill="#fff"></polygon><path d="M78,250.49H73.07a.53.53,0,0,1-.39-.18.53.53,0,0,1-.1-.42l11.26-54.82a.51.51,0,0,1,.49-.4h6a.51.51,0,0,1,.49.61L78.44,250.1A.49.49,0,0,1,78,250.49Zm-4.27-1h3.87l12.16-53.82h-5Z" fill="#231f20"></path><rect x="136.22" y="142.45" width="142.45" height="5.19" fill="#fff"></rect><path d="M278.67,148.13H136.22a.5.5,0,0,1-.5-.5v-5.18a.5.5,0,0,1,.5-.5H278.67a.5.5,0,0,1,.5.5v5.18A.5.5,0,0,1,278.67,148.13Zm-142-1H278.17V143H136.72Z" fill="#231f20"></path><polygon points="264.61 195.17 255.41 249.99 249.78 249.99 259.63 191.49 264.61 195.17" fill="#fff"></polygon><path d="M255.41,250.49h-5.63a.46.46,0,0,1-.38-.18.46.46,0,0,1-.11-.4l9.85-58.51a.51.51,0,0,1,.3-.38.53.53,0,0,1,.49.06l5,3.69a.5.5,0,0,1,.19.48l-9.19,54.82A.51.51,0,0,1,255.41,250.49Zm-5-1H255l9.08-54.1-4.08-3Z" fill="#231f20"></path><path d="M256.16,195.17h61.76l19.79-81.9s-8.15,4.65-10.41,9.11S310.22,186,310.22,186H255.41Z" fill="#fff"></path><path d="M317.92,195.67H256.16a.51.51,0,0,1-.5-.46l-.75-9.2a.53.53,0,0,1,.13-.38.52.52,0,0,1,.37-.16h54.42c1.39-5.51,14.85-59,17-63.31,2.29-4.55,10.27-9.13,10.61-9.32a.5.5,0,0,1,.73.55l-19.8,81.9A.49.49,0,0,1,317.92,195.67Zm-61.3-1h60.9L337,114.32c-2.24,1.39-7.51,4.93-9.2,8.29-2.2,4.36-16.89,62.89-17,63.48a.5.5,0,0,1-.49.38H256Z" fill="#231f20"></path><polygon points="217.5 217.81 213.34 229.94 222 234.42 228.19 217.81 217.5 217.81" fill="#fff"></polygon><path d="M222,234.92a.46.46,0,0,1-.23-.06l-8.66-4.47a.51.51,0,0,1-.24-.61L217,217.65a.5.5,0,0,1,.48-.34h10.69a.53.53,0,0,1,.42.21.5.5,0,0,1,0,.46l-6.19,16.61a.53.53,0,0,1-.29.3A.57.57,0,0,1,222,234.92ZM214,229.7l7.78,4,5.74-15.41h-9.62Z" fill="#231f20"></path><polygon points="237.63 228.86 234.86 239.77 243.4 242.3 247.55 231.11 237.63 228.86" fill="#fff"></polygon><path d="M243.4,242.8a.32.32,0,0,1-.14,0l-8.54-2.53a.51.51,0,0,1-.35-.6l2.77-10.91a.5.5,0,0,1,.6-.37l9.92,2.25a.56.56,0,0,1,.33.25.51.51,0,0,1,0,.42l-4.15,11.19A.51.51,0,0,1,243.4,242.8Zm-7.94-3.37,7.63,2.26,3.79-10.22-8.89-2Z" fill="#231f20"></path><path d="M266.52,159.25c-.94.35-29.32,6.47-33.07,9.85s-19.52,48.8-19.52,48.8l14.83,5.82L255.6,182.8Z" fill="#231f20"></path><path d="M228.76,224.16a.41.41,0,0,1-.16,0l-14.83-5.82a.44.44,0,0,1-.26-.55c.65-1.86,15.85-45.57,19.65-49,2.78-2.5,17.6-6.23,30.2-9.2,1.59-.38,2.84-.67,3-.73a.43.43,0,0,1,.48.12.45.45,0,0,1,.08.48L256,183l-26.87,41A.45.45,0,0,1,228.76,224.16Zm-14.28-6.51,14.11,5.53,26.64-40.62,10.49-22.65-2.16.52c-7.34,1.73-26.84,6.32-29.81,9S220,201.86,214.48,217.65Z" fill="#231f20"></path><path d="M311.72,166.66s.94,16.23-9.76,18.21S260.79,186,260.79,186s-7.35,36-12.37,47.59l-16.56-4.5s7.69-52.94,11.73-58.29,29.88-14,29.88-14Z" fill="#231f20"></path><path d="M248.42,234l-.11,0-16.57-4.49a.44.44,0,0,1-.32-.49c.31-2.17,7.76-53.12,11.81-58.5s29-13.82,30.1-14.17a.43.43,0,0,1,.25,0l38.25,9.89a.44.44,0,0,1,.33.4c0,.17.84,16.65-10.12,18.67-10,1.84-37.38,1.23-40.89,1.14-.79,3.82-7.61,36.48-12.32,47.31A.46.46,0,0,1,248.42,234Zm-16.07-5.26,15.82,4.29c4.94-11.74,12.11-46.79,12.19-47.15a.44.44,0,0,1,.44-.35c.31,0,30.55.82,41.08-1.12,9.38-1.73,9.47-15.17,9.41-17.43l-37.8-9.77c-1.94.65-25.78,8.83-29.55,13.82S233.06,223.94,232.35,228.76Z" fill="#231f20"></path><path d="M256.74,90.73c-1.35-2.06-2.05-6.2-4.38-7.08a15.87,15.87,0,0,0-7.72-.84,3.43,3.43,0,0,0-1.78.65,3.89,3.89,0,0,0-1,2.79l-.17,2.35a3,3,0,0,0,.61,2.55c1,.87,2.6.08,3.88.47s1.78,1.75,2.67,2.63a22.62,22.62,0,0,1,2.63,2.64C251.33,96.64,256.22,91.35,256.74,90.73Z" fill="#fff"></path><path d="M251.51,97.39a.51.51,0,0,1-.4-.2,11.32,11.32,0,0,0-1.65-1.72c-.3-.27-.61-.55-.94-.87a9,9,0,0,1-.84-1,3.41,3.41,0,0,0-1.62-1.47,4.16,4.16,0,0,0-1.51-.06,3.28,3.28,0,0,1-2.55-.52,3.44,3.44,0,0,1-.78-3l.17-2.35a4.26,4.26,0,0,1,1.14-3.13,3.84,3.84,0,0,1,2-.76,16.37,16.37,0,0,1,8,.86c1.75.66,2.61,2.75,3.44,4.77a15.44,15.44,0,0,0,1.19,2.5.5.5,0,0,1,0,.6c-.11.14-.44.5-.88,1-1.07,1.19-3.87,4.3-4.23,4.93a.49.49,0,0,1-.5.42ZM245.3,91a3.74,3.74,0,0,1,1,.14A4.34,4.34,0,0,1,248.49,93a6.81,6.81,0,0,0,.74.91c.31.31.6.57.89.83a13.52,13.52,0,0,1,1.33,1.3c.57-.75,1.75-2.1,4.05-4.65l.62-.69a20,20,0,0,1-1.07-2.35c-.75-1.82-1.53-3.71-2.87-4.21a15.21,15.21,0,0,0-7.47-.81,3,3,0,0,0-1.53.53,3.5,3.5,0,0,0-.8,2.44l-.17,2.35a2.64,2.64,0,0,0,.44,2.14,2.48,2.48,0,0,0,1.83.27C244.75,91,245,91,245.3,91Z" fill="#231f20"></path><path d="M288.1,109.19,256.79,88.3l-8,7.74S273.17,127.3,281.62,124,288.1,109.19,288.1,109.19Z" fill="#090908"></path><path d="M218.81,126.53h23.84a0,0,0,0,1,0,0v3.78a11.3,11.3,0,0,1-11.3,11.3h-1.25a11.3,11.3,0,0,1-11.3-11.3v-3.78a0,0,0,0,1,0,0Z" fill="#231f20"></path><path d="M231.35,142.1h-1.24a11.81,11.81,0,0,1-11.8-11.79v-3.78a.5.5,0,0,1,.5-.5h23.84a.5.5,0,0,1,.5.5v3.78A11.81,11.81,0,0,1,231.35,142.1Zm-12-15.07v3.28a10.8,10.8,0,0,0,10.8,10.79h1.24a10.8,10.8,0,0,0,10.8-10.79V127Z" fill="#231f20"></path><path d="M246.31,131.74s-6.66,1.22-7.89.47-3.19-2.67-5.06-3.12-6.29-.35-6.1.68,3,.38,3.94,1.78c0,0-8.45-1.12-9,.29s-.19,4.78,1.22,6.19,10.7,1.13,12.86,2,10.41,0,10.41,0Z" fill="#fff"></path><path d="M240,140.87a13.14,13.14,0,0,1-3.9-.4,27.07,27.07,0,0,0-5.24-.65c-4.13-.3-6.9-.56-7.79-1.44-1.58-1.58-1.94-5.21-1.33-6.73.41-1,3-1.14,5.72-1a1.1,1.1,0,0,1-.68-.81.89.89,0,0,1,.28-.8c1-.92,4.81-.84,6.43-.45a12,12,0,0,1,4,2.29,13.62,13.62,0,0,0,1.23.88c.66.41,4.34.05,7.53-.53a.48.48,0,0,1,.4.1.52.52,0,0,1,.19.37l.37,8.26a.5.5,0,0,1-.45.52C246.51,140.52,243,140.87,240,140.87Zm-14.55-9.24c-1.53,0-2.59.13-2.78.4-.49,1.21-.17,4.36,1.11,5.65.69.68,4.42.95,7.15,1.14a26.07,26.07,0,0,1,5.54.71c1.57.62,7.15.26,9.71,0l-.33-7.22c-1.84.32-6.5,1-7.67.31-.38-.24-.83-.58-1.31-.95a11.31,11.31,0,0,0-3.61-2.11c-1.75-.42-4.84-.25-5.45.16a4.56,4.56,0,0,0,1.1.26,3.75,3.75,0,0,1,2.72,1.28.5.5,0,0,1-.48.77A45.12,45.12,0,0,0,225.43,131.63Z" fill="#231f20"></path><path d="M295.14,54.18a6.91,6.91,0,0,0-1.55-.39c-2.09-.24-2.13.22-3.75-1.14a15.32,15.32,0,0,0-8.58-3.27c-6-.4-10.41,2.62-9,9.23a19.22,19.22,0,0,0,3.53,7.2c3.4,4.72,8.21,9,14,9.44,1.72.13,4.95,0,6.2-1.41a15.65,15.65,0,0,0,3.19-14.94,8.76,8.76,0,0,0-1.57-3A6.08,6.08,0,0,0,295.14,54.18Z" fill="#fff"></path><path d="M290.78,75.78c-.54,0-.93,0-1.06,0-6.49-.49-11.4-5.51-14.38-9.63a19.43,19.43,0,0,1-3.61-7.4c-.61-3-.13-5.44,1.38-7.18,1.69-2,4.59-2.89,8.18-2.65a15.7,15.7,0,0,1,8.87,3.38c1.07.9,1.28.91,2.17.94.34,0,.76,0,1.32.1a6.48,6.48,0,0,1,1.67.41h0A6.58,6.58,0,0,1,298,55.57a9.15,9.15,0,0,1,1.66,3.18,16,16,0,0,1-3.29,15.42C295.08,75.57,292.33,75.78,290.78,75.78ZM280.22,49.84c-2.79,0-5,.82-6.35,2.34s-1.71,3.69-1.16,6.33a18.39,18.39,0,0,0,3.45,7c2.85,4,7.53,8.77,13.64,9.23,2.11.15,4.82-.16,5.79-1.25a15,15,0,0,0,3.08-14.44,8.31,8.31,0,0,0-1.47-2.84A5.52,5.52,0,0,0,295,54.65h0a5.92,5.92,0,0,0-1.42-.36c-.53-.06-.93-.08-1.25-.09A3.59,3.59,0,0,1,289.52,53a14.88,14.88,0,0,0-8.3-3.15C280.88,49.85,280.55,49.84,280.22,49.84Z" fill="#231f20"></path><path d="M279.48,80.37v9.09A6.66,6.66,0,0,0,287.56,93c5.95-1.51,6.68-5.79,6.68-5.79L294,70.33S289.51,68,290.7,58.4a29.47,29.47,0,0,1-15.48,2.34S273.4,71.26,274,75.9C274.66,80.39,279.4,80.3,279.48,80.37Z" fill="#fff"></path><path d="M285.42,93.74a7.18,7.18,0,0,1-6.4-4.09.41.41,0,0,1,0-.19V80.82c-3.13-.37-5.05-2.09-5.43-4.85-.64-4.66,1.11-14.88,1.18-15.31a.51.51,0,0,1,.55-.41A29.51,29.51,0,0,0,290.47,58a.51.51,0,0,1,.52,0,.5.5,0,0,1,.21.47c-1.13,9.1,3,11.4,3,11.42a.52.52,0,0,1,.27.43l.27,16.84c0,.28-.87,4.7-7.06,6.28A9.08,9.08,0,0,1,285.42,93.74ZM280,89.35c.31.65,2.36,4.41,7.45,3.12,5.54-1.41,6.28-5.23,6.31-5.39l-.27-16.47c-1-.66-4.1-3.46-3.36-11.39a30.36,30.36,0,0,1-14.47,2.07c-.34,2.08-1.65,10.58-1.1,14.54.32,2.38,2,3.77,4.82,4a.73.73,0,0,1,.43.13.49.49,0,0,1,.19.39Z" fill="#231f20"></path><path d="M290.47,70.08a4,4,0,0,1,1.29-2.1,6.85,6.85,0,0,1,2.08-1.07,2.93,2.93,0,0,1,1.26-.25,2.62,2.62,0,0,1,.85.3,3.06,3.06,0,0,1,1.46,1.49,3.65,3.65,0,0,1,.09,1.71,6.72,6.72,0,0,1-.44,1.82,4.72,4.72,0,0,1-6.22,2.54" fill="#fff"></path><path d="M292.7,75.4a5.23,5.23,0,0,1-2.06-.42.51.51,0,0,1-.26-.66.49.49,0,0,1,.65-.26,4.38,4.38,0,0,0,3.26,0,4.3,4.3,0,0,0,2.31-2.3A6.64,6.64,0,0,0,297,70.1a3.28,3.28,0,0,0-.07-1.47,2.57,2.57,0,0,0-1.23-1.23,2,2,0,0,0-.67-.24,2.42,2.42,0,0,0-1,.22,6.55,6.55,0,0,0-1.93,1A3.39,3.39,0,0,0,291,70.19a.5.5,0,1,1-1-.22,4.31,4.31,0,0,1,1.46-2.37,7.12,7.12,0,0,1,2.23-1.16,3.23,3.23,0,0,1,1.48-.27,2.83,2.83,0,0,1,1,.35,3.47,3.47,0,0,1,1.68,1.76,4,4,0,0,1,.13,1.94,7.64,7.64,0,0,1-.47,2A5.24,5.24,0,0,1,294.67,75,5.16,5.16,0,0,1,292.7,75.4Z" fill="#231f20"></path><path d="M279.82,66.8s-3.23,4.59-2.51,5.42,2.82.34,2.82.34" fill="#fff"></path><path d="M278.86,73.2a2.51,2.51,0,0,1-1.92-.65c-.82-.93.9-3.8,2.48-6a.5.5,0,1,1,.81.58c-1.49,2.11-2.66,4.37-2.52,4.84.37.41,1.72.28,2.31.14a.51.51,0,0,1,.59.38.49.49,0,0,1-.37.6A7.41,7.41,0,0,1,278.86,73.2Z" fill="#231f20"></path><ellipse cx="282.4" cy="65.79" rx="0.77" ry="1.09" transform="translate(-3.51 17.5) rotate(-3.53)" fill="#231f20"></ellipse><ellipse cx="275.75" cy="65.81" rx="1.09" ry="0.77" transform="translate(190.76 336.27) rotate(-85.98)" fill="#231f20"></ellipse><path d="M279.66,76a18.09,18.09,0,0,1-2.53-.18.51.51,0,0,1-.42-.58.5.5,0,0,1,.58-.41s5.07.8,7.49-1.15a.51.51,0,0,1,.71.07.49.49,0,0,1-.08.7C283.84,75.68,281.47,76,279.66,76Z" fill="#231f20"></path><path d="M279.48,80.37s5.65,1.31,9-.6c0,0-3.69,7.62-9,6.83Z" fill="#231f20"></path><path d="M280.26,87.16a6.44,6.44,0,0,1-.86-.06.51.51,0,0,1-.42-.5V80.37a.51.51,0,0,1,.61-.49c.06,0,5.51,1.24,8.63-.54a.5.5,0,0,1,.7.65C288.77,80.3,285.39,87.16,280.26,87.16Zm-.28-1c3.39.18,6.1-3.37,7.32-5.34A16.76,16.76,0,0,1,280,81Z" fill="#231f20"></path><path d="M298.58,84.44c-3.37-2.63-19.39-1.13-22.83,5.26s-5.32,66.07-5.32,66.07l43.05,14.08s1.25-59.13-3.82-70.39S302,87.07,298.58,84.44Z" fill="#090908"></path><path d="M279.48,97.58l-3.73,26.28-31,7.32-1.12,10.32s42.14,3.38,46.88-2.63,8.3-37.16,8.3-37.16Z" fill="#090908"></path><path d="M253.55,129.59a.5.5,0,0,1-.11-1l21.87-5.16L279,101.91a.48.48,0,0,1,.57-.41.49.49,0,0,1,.41.57l-3.73,21.87a.48.48,0,0,1-.38.4l-22.19,5.24Z" fill="#231f20"></path><path d="M272,143a.5.5,0,0,1,0-1c.14,0,13.63-.07,19.44-5.72,8.82-8.58,6.17-28.62,6.14-28.82a.51.51,0,0,1,.43-.56.49.49,0,0,1,.56.42c.12.85,2.75,20.75-6.44,29.68C286,142.88,272.54,143,272,143Z" fill="#231f20"></path><path d="M272,123.21h0a.49.49,0,0,1-.46-.53c.09-1.15,2.25-28.2,3-30.68a.5.5,0,1,1,.95.31c-.6,1.89-2.21,20.74-3,30.45A.5.5,0,0,1,272,123.21Z" fill="#231f20"></path><path d="M237.27,72.12h13.16a0,0,0,0,1,0,0v25a3.54,3.54,0,0,1-3.54,3.54H240.8a3.54,3.54,0,0,1-3.54-3.54v-25A0,0,0,0,1,237.27,72.12Z" transform="translate(29.23 -58.05) rotate(14.43)" fill="#fff"></path><path d="M244.11,101.62a3.94,3.94,0,0,1-1-.13L237.21,100a4,4,0,0,1-2.9-4.92l6.24-24.25a.5.5,0,0,1,.61-.36l12.74,3.28a.48.48,0,0,1,.31.23.55.55,0,0,1,0,.38L248,98.59a4,4,0,0,1-3.91,3Zm-2.72-30.08-6.11,23.77a3,3,0,0,0,2.18,3.7l5.89,1.51h0a3,3,0,0,0,3.7-2.18l6.12-23.77Z" fill="#231f20"></path><path d="M244,98.7l-6-1.55a1.59,1.59,0,0,1-1.14-1.94l3.46-13h9.54l-3.91,15.35A1.59,1.59,0,0,1,244,98.7Z" fill="#090908"></path><path d="M253.82,86.9a8.31,8.31,0,0,0-.71-2.53,1.7,1.7,0,0,0-.82-.94,1.73,1.73,0,0,0-.68-.06,18.29,18.29,0,0,0-5.53,1,2.31,2.31,0,0,0-.8.44c-.68.64-.12,1.52.56,1.87a3.67,3.67,0,0,0,1.27.33,11.59,11.59,0,0,0,3.38-.16,2.77,2.77,0,0,0,.78,4.33l.24-.07" fill="#fff"></path><path d="M251.27,91.72a.46.46,0,0,1-.23-.06,3.33,3.33,0,0,1-1.72-2.32,3.22,3.22,0,0,1,.19-1.79,11.8,11.8,0,0,1-2.45,0,4,4,0,0,1-1.45-.37,2.06,2.06,0,0,1-1.12-1.46,1.35,1.35,0,0,1,.45-1.22,2.62,2.62,0,0,1,1-.54,18.38,18.38,0,0,1,5.68-1.08,2,2,0,0,1,.87.1,2.06,2.06,0,0,1,1.1,1.19,8.94,8.94,0,0,1,.76,2.68.5.5,0,0,1-.43.56.5.5,0,0,1-.56-.44,8,8,0,0,0-.68-2.38c-.11-.25-.29-.59-.54-.68a1.42,1.42,0,0,0-.48,0,17.27,17.27,0,0,0-5.37,1,2.3,2.3,0,0,0-.64.34.35.35,0,0,0-.14.35,1.08,1.08,0,0,0,.59.71,3.29,3.29,0,0,0,1.09.27,10.9,10.9,0,0,0,3.23-.15.49.49,0,0,1,.53.25.5.5,0,0,1-.06.58,2.31,2.31,0,0,0-.56,1.93,2.36,2.36,0,0,0,1,1.52h0A.49.49,0,0,1,252,91a.5.5,0,0,1-.33.62l-.24.08Z" fill="#231f20"></path><path d="M213.34,229.94s-16.77-1.19-17.43,0a7.33,7.33,0,0,0-.75,2.7s23.65,10.41,24.49,9.66,2.35-7.88,2.35-7.88Z" fill="#231f20"></path><path d="M219.6,242.74c-1,0-5.18-1.14-24.62-9.7a.44.44,0,0,1-.26-.43,7.72,7.72,0,0,1,.8-2.88c.66-1.19,10.07-.78,17.85-.23a.48.48,0,0,1,.17.05L222.2,234a.44.44,0,0,1,.23.48c-.36,1.71-1.6,7.34-2.48,8.12C219.9,242.68,219.83,242.74,219.6,242.74Zm-24-10.38c8.53,3.75,22.1,9.48,23.79,9.54.47-.64,1.41-4.11,2.08-7.24l-8.28-4.29c-7.74-.54-16.18-.76-17-.16A6.58,6.58,0,0,0,195.63,232.36Zm23.87,9.54Z" fill="#231f20"></path><path d="M243.4,242.3s.19,6.39-.56,7.14S218,250,218,250a23.07,23.07,0,0,1,.47-2.68c.29-1,16.43-7.51,16.43-7.51" fill="#231f20"></path><path d="M226.42,250.44c-3,0-6,0-8.46,0a.48.48,0,0,1-.33-.15.42.42,0,0,1-.1-.34,20.55,20.55,0,0,1,.48-2.75c.28-1,9.23-4.81,16.68-7.8a.45.45,0,0,1,.58.25.44.44,0,0,1-.25.57c-7.42,3-15.62,6.54-16.19,7.29a20.71,20.71,0,0,0-.37,2.05c9,.08,23.09,0,24.13-.45.31-.38.45-3.82.37-6.75a.44.44,0,1,1,.88,0c.06,2,.11,6.66-.69,7.46C242.59,250.3,234.36,250.44,226.42,250.44Z" fill="#231f20"></path><polygon points="309.66 195.17 322.05 249.99 326.93 249.99 315.67 195.17 309.66 195.17" fill="#fff"></polygon><path d="M326.93,250.49h-4.88a.49.49,0,0,1-.49-.39l-12.39-54.82a.51.51,0,0,1,.49-.61h6a.51.51,0,0,1,.49.4l11.26,54.82a.53.53,0,0,1-.1.42A.53.53,0,0,1,326.93,250.49Zm-4.48-1h3.87l-11.06-53.82h-5Z" fill="#231f20"></path><polygon points="255.31 147.63 274.96 254.31 280.37 254.31 262.32 147.63 255.31 147.63" fill="#fff"></polygon><path d="M280.37,254.81H275a.49.49,0,0,1-.49-.41L254.82,147.73a.51.51,0,0,1,.49-.6h7a.5.5,0,0,1,.49.42l18,106.68a.55.55,0,0,1-.11.41A.52.52,0,0,1,280.37,254.81Zm-5-1h4.39L261.9,148.13h-6Z" fill="#231f20"></path><polygon points="159.58 147.63 139.93 254.31 134.52 254.31 152.56 147.63 159.58 147.63" fill="#fff"></polygon><path d="M139.93,254.81h-5.41a.49.49,0,0,1-.38-.17.48.48,0,0,1-.11-.41l18-106.68a.5.5,0,0,1,.49-.42h7a.51.51,0,0,1,.49.6L140.42,254.4A.49.49,0,0,1,139.93,254.81Zm-4.82-1h4.4L159,148.13h-6Z" fill="#231f20"></path><path d="M109.18,102.08s9.92,21.64,15,23.7,31.16,4.92,31.16,4.92l2.49,11s-33.15,5.24-46.68,1.3S97,119.35,97.88,106.59,104.62,93.26,109.18,102.08Z" fill="#090908"></path><path d="M123.15,145.15c-6,0-14-.58-18.14-3.42C98.18,137,94.1,120.36,93.93,119.66a.51.51,0,0,1,.36-.61.51.51,0,0,1,.61.37c0,.17,4.16,17,10.68,21.48s24.65,3,24.84,3a.5.5,0,1,1,.08,1C130.2,144.89,127.14,145.15,123.15,145.15Z" fill="#231f20"></path><path d="M188.64,114.11h13.7a0,0,0,0,1,0,0v24.73a3.61,3.61,0,0,1-3.61,3.61h-6.48a3.61,3.61,0,0,1-3.61-3.61V114.11A0,0,0,0,1,188.64,114.11Z" fill="#fff"></path><path d="M198.73,143h-6.48a4.12,4.12,0,0,1-4.11-4.11V114.11a.5.5,0,0,1,.5-.5h13.7a.5.5,0,0,1,.5.5v24.73A4.12,4.12,0,0,1,198.73,143Zm-9.59-28.34v24.23a3.12,3.12,0,0,0,3.11,3.11h6.48a3.11,3.11,0,0,0,3.11-3.11V114.61Z" fill="#231f20"></path><path d="M190.5,121.14h10a0,0,0,0,1,0,0v16.62a2.59,2.59,0,0,1-2.59,2.59h-4.81a2.59,2.59,0,0,1-2.59-2.59V121.14A0,0,0,0,1,190.5,121.14Z" fill="#090908"></path><path d="M147.06,130.22h0c-.65,0-15.85-.4-23.11-4s-14.91-23.14-15.22-24a.5.5,0,0,1,.28-.64.51.51,0,0,1,.65.28c.08.2,7.75,20,14.73,23.43s22.53,3.89,22.69,3.89a.5.5,0,0,1,0,1Z" fill="#231f20"></path><path d="M167.05,237.46s.7,12.25,2.53,12.53,29.2-10.13,29.2-12.37-3-3.2-6.81-4.53c-.42-.15-13.8-1.11-13.8-1.11Z" fill="#231f20"></path><path d="M169.64,250.43h-.13c-2-.31-2.68-9.16-2.9-13a.45.45,0,0,1,.25-.42L178,231.58a.45.45,0,0,1,.23,0c4,.29,13.48,1,13.91,1.13l.45.16c3.71,1.3,6.65,2.32,6.65,4.79,0,.31-.21.63-.64,1C195.23,241.49,172.4,250.43,169.64,250.43Zm-2.13-12.7c.38,6.26,1.34,11.65,2.14,11.83,1.71.2,28-9.83,28.69-12,0-1.81-2.68-2.75-6.06-3.93l-.45-.15c-.49-.11-8.34-.71-13.57-1.09Z" fill="#231f20"></path><path d="M117.31,53.88s5.63,18,1.88,22.06-8.64,1.69-8.82,2,0,12.2,0,12.2L97.88,85.42V64.53C97.88,57.07,111.87,43.09,117.31,53.88Z" fill="#fff"></path><path d="M110.37,90.61a.57.57,0,0,1-.18,0l-12.48-4.7a.49.49,0,0,1-.33-.46V64.53c0-5.44,6.8-13.51,12.54-14.87,2.37-.57,5.66-.33,7.84,4l0,.07c.23.75,5.67,18.35,1.77,22.55-3.18,3.42-7.15,2.53-8.65,2.2l-.1,0c-.06,1.69,0,7.77.06,11.65a.51.51,0,0,1-.22.42A.47.47,0,0,1,110.37,90.61Zm-12-5.54,11.48,4.31c-.18-11.35,0-11.59.09-11.75.23-.34.59-.26,1.18-.13a7.5,7.5,0,0,0,7.69-1.9c2.91-3.13-.43-16.56-2-21.53-1.52-3-3.77-4.14-6.7-3.44C104.47,52,98.38,60,98.38,64.53Z" fill="#231f20"></path><path d="M113.61,50.26A19.36,19.36,0,0,0,104.36,65s-2.53-3.66-3.85-.43-.19,5.49,2.63,6.9c0,0,1.21,17.22-3.17,32S89,125.54,82.5,122.86s-3.93-10-1.41-23.09,11.12-37.87,12.24-47S112.64,44,113.61,50.26Z" fill="#fff"></path><path d="M85.15,123.91a7.55,7.55,0,0,1-2.84-.58c-6-2.49-4.76-8.65-2.67-18.85q.47-2.25,1-4.8c1.21-6.27,3.8-15.18,6.3-23.8,2.75-9.48,5.35-18.44,5.94-23.19.62-5.07,6.17-7.42,11.4-7.5,4.39,0,9.32,1.46,9.87,5a.5.5,0,0,1-.26.52c-.08,0-8.18,4.56-9,14.3a.5.5,0,0,1-.91.24c-.3-.43-1.32-1.63-2.07-1.54-.42,0-.73.58-.9,1-1.16,2.84-.37,4.88,2.38,6.26a.5.5,0,0,1,.28.42c0,.17,1.16,17.48-3.19,32.18-3.08,10.38-7.34,17.32-12,19.54A7.51,7.51,0,0,1,85.15,123.91Zm19.37-77.72h-.26c-4.8.07-9.88,2.15-10.43,6.63-.6,4.82-3.21,13.82-6,23.34-2.5,8.6-5.08,17.49-6.28,23.71-.33,1.7-.65,3.31-1,4.81-2.06,10-3.19,15.55,2.07,17.72a6.3,6.3,0,0,0,5.33-.18c4.4-2.1,8.47-8.82,11.47-18.93,4-13.51,3.3-29.27,3.17-31.55-3-1.62-3.92-4.17-2.61-7.39.41-1,1-1.56,1.72-1.64a3,3,0,0,1,2.22,1A20.17,20.17,0,0,1,113.05,50C112.36,47.48,108.36,46.19,104.52,46.19Z" fill="#231f20"></path><path d="M119.36,63.33s3,4.12,2.35,4.89-2.55.34-2.55.34" fill="#fff"></path><path d="M120.24,69.18a5.43,5.43,0,0,1-1.19-.13.5.5,0,1,1,.21-1c.66.14,1.76.17,2.07-.19.07-.38-1-2.4-2.38-4.27a.5.5,0,0,1,.11-.69.49.49,0,0,1,.7.11c1.47,2,3.07,4.62,2.33,5.5A2.4,2.4,0,0,1,120.24,69.18Z" fill="#231f20"></path><path d="M118.25,71.48s-3.52,4.93-6.19,0" fill="#fff"></path><path d="M114.85,74.17h-.17c-1.19-.07-2.22-.89-3.06-2.44a.49.49,0,0,1,.2-.68.51.51,0,0,1,.68.2c.66,1.23,1.42,1.87,2.24,1.92,1.57.12,3.09-2,3.1-2a.5.5,0,1,1,.82.58C118.59,71.87,116.92,74.17,114.85,74.17Z" fill="#231f20"></path><ellipse cx="115.15" cy="59.37" rx="0.49" ry="0.91" transform="translate(-4.28 9.17) rotate(-4.48)" fill="#231f20"></ellipse><path d="M110.37,77.91s-3.87-.87-5.07-2.42c0,0,.31,6.55,5,10.35Z" fill="#231f20"></path><path d="M110.31,86.34a.51.51,0,0,1-.31-.11c-4.82-3.9-5.19-10.44-5.2-10.72a.5.5,0,0,1,.89-.33c.9,1.16,3.76,2,4.79,2.24a.49.49,0,0,1,.39.49l-.06,7.93a.5.5,0,0,1-.28.45A.54.54,0,0,1,110.31,86.34ZM106,76.71a15.11,15.11,0,0,0,3.87,8l0-6.43A14.66,14.66,0,0,1,106,76.71Z" fill="#231f20"></path></g></svg>